<svg width="24" height="24" data-name="Layer 2" xmlns="http://www.w3.org/2000/svg" viewBox="0 0 24 24">       
<g  data-name="Layer 2">
<path fill="#659fe2" d="M12.05,11.96l3.48,6.02h0c1.55,2.68-.39,6.02-3.48,6.02h0c-3.09,0-5.02-3.35-3.48-6.02h0s3.48-6.02,3.48-6.02Z"/>
<path fill="#659fe2" d="M12.05,0c3.09,0,5.02,3.35,3.48,6.02h0s-3.48,6.02-3.48,6.02l-3.48-6.02h0c-1.55-2.68,.39-6.02,3.48-6.02"/>
<path fill="#659fe2" d="M11.96,12.03l6.06-3.4h0c2.69-1.51,6.02,.46,5.98,3.55h0c-.04,3.09-3.41,4.98-6.06,3.4h0s-5.98-3.55-5.98-3.55Z"/>
<path fill="#659fe2" d="M0,11.89c.04-3.09,3.41-4.98,6.06-3.4h0s5.98,3.55,5.98,3.55l-6.06,3.4h0C3.29,16.95-.04,14.98,0,11.89"/>
</g>
</svg>