<svg width="261" height="93" viewBox="0 0 261 93" fill="none" xmlns="http://www.w3.org/2000/svg">
<rect x="2.7094" y="2.20514" width="255.987" height="88.3077" fill="white" stroke="#EE210A" stroke-width="4"/>
<path d="M41.7107 34.319H45.3587V58.511C45.3587 59.535 45.5187 60.319 45.8387 60.863C46.1907 61.407 46.8147 61.791 47.7107 62.015C48.6387 62.207 49.9827 62.303 51.7427 62.303C52.2227 62.303 53.0547 62.303 54.2387 62.303C55.4227 62.303 56.7667 62.303 58.2707 62.303C59.8067 62.303 61.3427 62.303 62.8787 62.303C64.4467 62.303 65.8547 62.303 67.1027 62.303C68.3827 62.303 69.3587 62.303 70.0307 62.303C71.3427 62.303 72.3987 62.175 73.1987 61.919C74.0307 61.663 74.6707 61.199 75.1187 60.527C75.5667 59.823 75.9027 58.863 76.1267 57.647C76.3827 56.399 76.5907 54.815 76.7507 52.895C77.0707 53.119 77.4387 53.327 77.8547 53.519C78.3027 53.711 78.7507 53.887 79.1987 54.047C79.6467 54.207 80.0467 54.319 80.3987 54.383C80.1747 56.591 79.8707 58.431 79.4867 59.903C79.1027 61.375 78.5427 62.543 77.8067 63.407C77.1027 64.271 76.1107 64.895 74.8307 65.279C73.5827 65.663 71.9667 65.855 69.9827 65.855C69.6627 65.855 69.0387 65.855 68.1107 65.855C67.2147 65.855 66.1267 65.855 64.8467 65.855C63.5987 65.855 62.2867 65.855 60.9107 65.855C59.5347 65.855 58.2227 65.855 56.9747 65.855C55.7267 65.855 54.6547 65.855 53.7587 65.855C52.8627 65.855 52.2547 65.855 51.9347 65.855C49.3427 65.855 47.2947 65.647 45.7907 65.231C44.2867 64.815 43.2307 64.079 42.6227 63.023C42.0147 61.967 41.7107 60.447 41.7107 58.463V34.319ZM43.6787 42.239H71.9987V45.791H43.6787V42.239ZM39.1667 26.015H74.3027V48.191H70.5587V29.615H39.1667V26.015ZM105.455 41.999H123.935V45.167H105.455V41.999ZM105.359 30.479H126.143V33.791H105.359V30.479ZM114.239 23.087H117.791V43.871H114.239V23.087ZM103.871 30.479H107.279V42.095C107.279 43.951 107.199 45.967 107.039 48.143C106.879 50.319 106.591 52.543 106.175 54.815C105.791 57.055 105.199 59.247 104.399 61.391C103.631 63.535 102.591 65.487 101.279 67.247C101.087 67.055 100.815 66.831 100.463 66.575C100.111 66.351 99.7427 66.127 99.3587 65.903C98.9747 65.679 98.6387 65.503 98.3507 65.375C99.6307 63.679 100.623 61.839 101.327 59.855C102.063 57.871 102.607 55.855 102.959 53.807C103.343 51.727 103.583 49.679 103.679 47.663C103.807 45.647 103.871 43.775 103.871 42.047V30.479ZM110.447 43.631C111.919 48.591 114.223 52.879 117.359 56.495C120.495 60.111 124.479 62.671 129.311 64.175C129.023 64.431 128.719 64.735 128.399 65.087C128.111 65.471 127.823 65.855 127.535 66.239C127.279 66.623 127.055 66.991 126.863 67.343C121.839 65.487 117.727 62.591 114.527 58.655C111.359 54.719 108.959 49.983 107.327 44.447L110.447 43.631ZM125.087 30.479H125.615L126.239 30.335L128.735 30.911C128.351 32.575 127.887 34.287 127.343 36.047C126.831 37.807 126.319 39.295 125.807 40.511L122.735 39.839C123.151 38.751 123.583 37.375 124.031 35.711C124.479 34.047 124.831 32.495 125.087 31.055V30.479ZM123.167 41.999H123.839L124.463 41.807L126.767 42.671C125.775 46.991 124.303 50.751 122.351 53.951C120.399 57.151 118.095 59.855 115.439 62.063C112.783 64.239 109.919 65.967 106.847 67.247C106.687 66.927 106.479 66.575 106.223 66.191C105.999 65.839 105.759 65.487 105.503 65.135C105.247 64.815 104.975 64.527 104.687 64.271C107.535 63.247 110.191 61.743 112.655 59.759C115.151 57.743 117.311 55.295 119.135 52.415C120.991 49.535 122.335 46.271 123.167 42.623V41.999ZM91.6787 46.607L95.0867 42.527V67.247H91.6787V46.607ZM85.0547 31.967H99.1667V35.231H85.0547V31.967ZM91.5347 23.183H94.9427V33.791H91.5347V23.183ZM94.7027 42.575C95.0547 42.895 95.5667 43.455 96.2387 44.255C96.9427 45.023 97.6787 45.871 98.4467 46.799C99.2467 47.727 99.9667 48.591 100.607 49.391C101.279 50.191 101.759 50.767 102.047 51.119L99.8867 53.567C99.5347 52.991 99.0387 52.271 98.3987 51.407C97.7907 50.543 97.1187 49.631 96.3827 48.671C95.6787 47.711 94.9907 46.831 94.3187 46.031C93.6787 45.231 93.1667 44.607 92.7827 44.159L94.7027 42.575ZM98.3027 31.967H99.0227L99.6467 31.823L101.567 33.119C100.479 35.903 99.0867 38.607 97.3907 41.231C95.6947 43.823 93.8387 46.207 91.8227 48.383C89.8067 50.527 87.7907 52.335 85.7747 53.807C85.6467 53.487 85.4707 53.119 85.2467 52.703C85.0547 52.287 84.8307 51.903 84.5747 51.551C84.3507 51.167 84.1267 50.863 83.9027 50.639C85.8227 49.359 87.7107 47.775 89.5667 45.887C91.4547 43.967 93.1667 41.871 94.7027 39.599C96.2387 37.327 97.4387 35.023 98.3027 32.687V31.967ZM100.655 40.559L102.911 42.191C102.175 43.215 101.391 44.255 100.559 45.311C99.7267 46.367 98.9587 47.263 98.2547 47.999L96.4307 46.655C96.8787 46.111 97.3587 45.487 97.8707 44.783C98.4147 44.047 98.9267 43.311 99.4067 42.575C99.9187 41.807 100.335 41.135 100.655 40.559ZM155.375 34.319H176.687V37.775H155.375V34.319ZM134.399 29.279H153.647V32.543H134.399V29.279ZM134.015 49.247H154.079V52.511H134.015V49.247ZM132.911 39.167H154.655V42.479H132.911V39.167ZM168.431 23.519H171.983V62.495C171.983 63.615 171.823 64.463 171.503 65.039C171.183 65.615 170.655 66.063 169.919 66.383C169.215 66.671 168.239 66.863 166.991 66.959C165.743 67.055 164.111 67.103 162.095 67.103C162.031 66.783 161.919 66.399 161.759 65.951C161.599 65.535 161.423 65.103 161.231 64.655C161.071 64.239 160.895 63.871 160.703 63.551C162.207 63.583 163.567 63.599 164.783 63.599C165.999 63.631 166.815 63.631 167.231 63.599C167.679 63.599 167.983 63.519 168.143 63.359C168.335 63.199 168.431 62.911 168.431 62.495V23.519ZM157.247 43.247L160.319 42.191C160.895 43.311 161.503 44.543 162.143 45.887C162.783 47.231 163.375 48.543 163.919 49.823C164.463 51.071 164.895 52.143 165.215 53.039L161.903 54.431C161.615 53.471 161.199 52.367 160.655 51.119C160.143 49.839 159.583 48.511 158.975 47.135C158.399 45.727 157.823 44.431 157.247 43.247ZM142.319 23.039H145.823V40.943H142.319V23.039ZM142.319 43.583H145.823V62.063H142.319V43.583ZM132.479 61.631C134.367 61.375 136.559 61.055 139.055 60.671C141.551 60.287 144.191 59.871 146.975 59.423C149.791 58.975 152.591 58.527 155.375 58.079L155.567 61.439C152.879 61.855 150.175 62.303 147.455 62.783C144.767 63.231 142.175 63.647 139.679 64.031C137.215 64.447 134.991 64.831 133.007 65.183L132.479 61.631ZM210.431 58.175L213.215 56.447C214.367 57.215 215.567 58.095 216.815 59.087C218.095 60.047 219.295 61.007 220.415 61.967C221.535 62.927 222.463 63.791 223.199 64.559L220.223 66.527C219.551 65.759 218.671 64.879 217.583 63.887C216.495 62.895 215.311 61.903 214.031 60.911C212.783 59.887 211.583 58.975 210.431 58.175ZM187.343 44.687H218.783V47.759H187.343V44.687ZM182.255 27.887H200.351V30.911H182.255V27.887ZM181.823 51.599H223.727V54.719H181.823V51.599ZM201.071 52.415H204.719V63.359C204.719 64.351 204.575 65.087 204.287 65.567C203.999 66.079 203.455 66.463 202.655 66.719C201.887 66.975 200.863 67.119 199.583 67.151C198.303 67.215 196.719 67.247 194.831 67.247C194.735 66.767 194.559 66.223 194.303 65.615C194.079 65.039 193.855 64.527 193.631 64.079C194.623 64.111 195.567 64.127 196.463 64.127C197.359 64.159 198.111 64.175 198.719 64.175C199.359 64.175 199.823 64.159 200.111 64.127C200.495 64.095 200.751 64.015 200.879 63.887C201.007 63.791 201.071 63.599 201.071 63.311V52.415ZM190.607 56.543L193.967 57.599C192.751 59.327 191.247 60.991 189.455 62.591C187.663 64.159 185.903 65.487 184.175 66.575C183.951 66.351 183.663 66.095 183.311 65.807C182.991 65.551 182.639 65.279 182.255 64.991C181.903 64.703 181.583 64.479 181.295 64.319C183.087 63.359 184.815 62.191 186.479 60.815C188.143 59.439 189.519 58.015 190.607 56.543ZM190.319 22.991H193.679V43.007H190.319V22.991ZM202.607 27.887H223.055V30.911H202.607V27.887ZM211.151 22.991H214.559V43.007H211.151V22.991ZM193.295 31.151C193.679 31.375 194.239 31.743 194.975 32.255C195.711 32.735 196.495 33.263 197.327 33.839C198.159 34.415 198.927 34.959 199.631 35.471C200.335 35.983 200.847 36.351 201.167 36.575L199.199 39.023C198.783 38.639 198.239 38.175 197.567 37.631C196.895 37.055 196.159 36.447 195.359 35.807C194.591 35.167 193.855 34.575 193.151 34.031C192.479 33.487 191.903 33.071 191.423 32.783L193.295 31.151ZM214.751 29.615C215.519 30.895 216.447 32.191 217.535 33.503C218.623 34.815 219.791 36.031 221.039 37.151C222.319 38.239 223.535 39.151 224.687 39.887C224.335 40.175 223.919 40.575 223.439 41.087C222.991 41.567 222.639 41.999 222.383 42.383C221.231 41.551 220.031 40.495 218.783 39.215C217.535 37.935 216.351 36.543 215.231 35.039C214.111 33.535 213.167 32.063 212.399 30.623L214.751 29.615ZM190.127 29.231L192.575 30.191C191.871 31.759 190.975 33.343 189.887 34.943C188.831 36.543 187.679 38.015 186.431 39.359C185.215 40.703 183.983 41.807 182.735 42.671C182.479 42.255 182.127 41.807 181.679 41.327C181.231 40.847 180.831 40.463 180.479 40.175C181.695 39.439 182.911 38.495 184.127 37.343C185.343 36.159 186.479 34.863 187.535 33.455C188.591 32.047 189.455 30.639 190.127 29.231ZM210.719 29.471L213.215 30.431C212.447 31.967 211.487 33.503 210.335 35.039C209.215 36.575 207.983 37.983 206.639 39.263C205.327 40.511 204.015 41.551 202.703 42.383C202.479 41.999 202.143 41.567 201.695 41.087C201.247 40.575 200.847 40.175 200.495 39.887C201.775 39.215 203.055 38.319 204.335 37.199C205.615 36.079 206.815 34.847 207.935 33.503C209.087 32.159 210.015 30.815 210.719 29.471Z" fill="#EE210A"/>
</svg>
