<svg width="227" height="65" viewBox="0 0 227 65" fill="currentColor" xmlns="http://www.w3.org/2000/svg">
<rect x="2.12012" y="1.57599" width="223.005" height="61.848" fill="white" stroke="#F53F3F" stroke-width="3"/>
<path d="M39.416 17.952H46.616V21.504H39.416V17.952ZM39.416 25.216H46.744V28.768H39.416V25.216ZM51.896 29.12H63.128V32.608H51.896V29.12ZM39.384 32.64H46.616V36.256H39.384V32.64ZM37.912 17.952H41.368V29.6C41.368 34.752 41.048 42.176 38.84 46.944C38.168 46.368 36.632 45.504 35.736 45.184C37.752 40.768 37.912 34.304 37.912 29.6V17.952ZM44.472 17.952H48.024V42.72C48.024 44.448 47.736 45.536 46.712 46.176C45.688 46.816 44.312 46.88 42.232 46.88C42.136 45.888 41.688 44.16 41.208 43.2C42.36 43.232 43.544 43.232 43.928 43.2C44.312 43.2 44.472 43.072 44.472 42.656V17.952ZM60.92 17.984H64.6V24.192C64.6 25.856 64.248 26.784 62.904 27.296C61.624 27.776 59.8 27.776 57.368 27.776C57.208 26.784 56.696 25.472 56.216 24.576C57.816 24.64 59.736 24.64 60.248 24.608C60.76 24.608 60.92 24.512 60.92 24.128V17.984ZM62.072 29.12H62.712L63.32 29.024L65.592 29.76C64.184 38.08 60.6 43.68 55.352 46.848C54.904 45.984 53.912 44.672 53.144 44.032C57.656 41.632 60.984 36.224 62.072 29.76V29.12ZM56.504 31.488C58.2 36.928 61.656 41.696 66.488 43.936C65.688 44.64 64.632 45.984 64.088 46.88C58.936 44.128 55.512 38.752 53.528 32.256L56.504 31.488ZM49.816 17.984H61.816V21.536H53.432V46.88H49.816V17.984ZM70.744 34.656H92.856V37.92H70.744V34.656ZM91.64 34.656H95.448C95.448 34.656 95.352 35.68 95.256 36.192C94.552 41.664 93.752 44.224 92.536 45.312C91.608 46.176 90.616 46.4 89.112 46.496C87.96 46.56 85.88 46.56 83.768 46.464C83.704 45.472 83.224 44.064 82.552 43.136C84.664 43.328 87 43.36 87.928 43.36C88.632 43.36 89.08 43.328 89.496 43.04C90.328 42.4 91.064 39.968 91.608 35.136L91.64 34.656ZM80.344 31.936L84.344 32.256C82.84 40.672 78.68 44.704 70.872 46.848C70.456 46.016 69.336 44.384 68.632 43.68C75.864 42.208 79.48 38.88 80.344 31.936ZM77.048 19.872H93.08V23.072H77.048V19.872ZM92.12 19.872H92.856L93.464 19.712L95.832 21.248C91 28.416 80.408 31.648 69.848 32.896C69.592 31.936 68.952 30.4 68.344 29.568C78.36 28.704 88.472 25.824 92.12 20.352V19.872ZM77.592 23.168C81.208 27.04 88.824 28.768 98.072 29.152C97.304 29.984 96.408 31.52 95.96 32.544C86.424 31.84 79 29.6 74.456 24.448L77.592 23.168ZM78.52 16.8L82.424 17.568C80.088 21.408 76.728 24.768 71.576 27.424C71.128 26.528 70.072 25.088 69.336 24.48C73.88 22.432 76.888 19.52 78.52 16.8ZM103.16 24.896H107.128V39.872C107.128 41.856 107.672 42.176 111.224 42.176C112.888 42.176 119.896 42.176 121.784 42.176C125.08 42.176 125.592 41.344 126.04 36.64C127.032 37.28 128.824 37.952 129.944 38.144C129.208 44.224 127.8 45.984 121.944 45.984C120.376 45.984 112.696 45.984 111.256 45.984C105.048 45.984 103.16 44.768 103.16 39.872V24.896ZM105.464 29.248H123.16V33.056H105.464V29.248ZM101.88 18.624H125.72V34.528H121.72V22.432H101.88V18.624ZM132.632 19.168H161.368V23.04H132.632V19.168ZM144.248 22.656H148.376V46.816H144.248V22.656ZM146.424 30.4L149.048 27.36C152.536 29.088 157.56 31.872 160.024 33.856L157.176 37.376C154.904 35.36 150.04 32.352 146.424 30.4ZM165.56 38.592C165.368 37.888 164.824 36.192 164.376 35.232C165.24 35.072 165.944 34.368 166.968 33.184C168.088 32.032 171.352 27.648 173.528 23.296L176.6 25.28C174.2 29.44 171.032 33.664 167.96 36.736V36.832C167.96 36.832 165.56 37.92 165.56 38.592ZM165.56 38.592L165.336 35.616L166.936 34.464L175.64 33.024C175.512 34.016 175.48 35.456 175.544 36.224C167.704 37.76 166.392 38.144 165.56 38.592ZM165.336 30.784C165.176 30.048 164.536 28.256 164.12 27.264C164.792 27.072 165.336 26.4 166.04 25.376C166.744 24.416 168.952 20.544 170.136 16.896L173.688 18.592C172.088 22.24 169.688 26.144 167.384 28.864V28.96C167.384 28.96 165.336 30.112 165.336 30.784ZM165.336 30.784L165.24 28.096L166.84 27.04L172.632 26.624C172.408 27.584 172.28 28.928 172.248 29.696C167.064 30.24 165.976 30.464 165.336 30.784ZM164.504 41.76C167.224 41.056 171.416 39.744 175.416 38.496L175.992 41.632C172.312 42.944 168.408 44.32 165.304 45.408L164.504 41.76ZM176.792 24.192L192.056 21.888L192.696 25.248L177.432 27.68L176.792 24.192ZM176.12 31.104L192.92 28.064L193.528 31.424L176.728 34.56L176.12 31.104ZM181.272 16.704H185.08C184.856 29.568 187.352 43.136 190.424 43.136C191.032 43.136 191.32 42.336 191.448 39.744C192.216 40.64 193.304 41.472 194.168 41.888C193.528 45.824 192.536 46.88 189.976 46.88C183.416 46.88 181.336 31.168 181.272 16.704ZM185.592 19.136L187.832 17.12C189.144 17.888 190.968 19.104 191.896 19.904L189.592 22.176C188.696 21.312 186.904 20 185.592 19.136ZM190.584 32.768L193.784 34.24C190.136 40 184.12 44 177.304 46.432C176.824 45.472 175.864 44.128 174.968 43.264C181.432 41.376 187.416 37.824 190.584 32.768Z" fill="#F53F3F"/>
</svg>
