<?xml version="1.0" encoding="utf-8"?>
<!-- Generator: Adobe Illustrator 27.5.0, SVG Export Plug-In . SVG Version: 6.00 Build 0)  -->
<svg version="1.1" id="Layer_1" xmlns="http://www.w3.org/2000/svg" xmlns:xlink="http://www.w3.org/1999/xlink" x="0px" y="0px"
	 viewBox="0 0 2000 2000" style="enable-background:new 0 0 2000 2000;" xml:space="preserve">
<rect style="fill:#FFFFFF;" width="2000" height="2000"/>
<g>
	<path d="M1627.703,1324.725H372.297c-6.129,0-11.099-4.97-11.099-11.099c0-6.129,4.97-11.099,11.099-11.099h1255.406
		c6.129,0,11.099,4.97,11.099,11.099C1638.802,1319.755,1633.832,1324.725,1627.703,1324.725z"/>
	<g>
		<g>
			
				<ellipse transform="matrix(0.7071 -0.7071 0.7071 0.7071 -183.2502 1135.2937)" style="fill:#333333;" cx="1278.796" cy="788.849" rx="96.932" ry="96.932"/>
			<path d="M1278.917,895.292c-4.452,0-8.963-0.284-13.408-0.843c-28.207-3.549-53.344-17.87-70.778-40.325
				c-17.436-22.455-25.083-50.356-21.534-78.563c6.682-53.107,52.027-93.155,105.478-93.155c4.452,0,8.963,0.284,13.408,0.843
				c58.228,7.327,99.64,60.659,92.313,118.887C1377.713,855.244,1332.367,895.292,1278.917,895.292z M1278.674,701.407
				c-43.896,0-81.137,32.9-86.626,76.527c-2.916,23.171,3.366,46.091,17.689,64.538c14.323,18.446,34.972,30.21,58.143,33.126
				c3.662,0.461,7.375,0.694,11.037,0.694c43.896,0,81.138-32.899,86.627-76.527c6.019-47.833-28.001-91.645-75.834-97.664
				C1286.049,701.64,1282.336,701.407,1278.674,701.407z"/>
		</g>
		<g>
			<path style="fill:#333333;" d="M739.916,1114.121c0,0-44.333,56.155-13.3,127.825c31.033,71.671,344.316,63.543,407.859,66.499
				s175.113-127.631,155.164-163.933C1269.689,1108.21,739.916,1114.121,739.916,1114.121z"/>
		</g>
		<g>
			<circle style="fill:#333333;" cx="790.84" cy="727.452" r="96.932"/>
			<path d="M790.961,833.894c-4.452,0-8.963-0.284-13.409-0.843c-58.227-7.327-99.639-60.66-92.313-118.887
				c6.682-53.107,52.028-93.155,105.479-93.155c4.452,0,8.963,0.284,13.409,0.843c58.228,7.327,99.639,60.66,92.313,118.887
				C889.757,793.847,844.412,833.894,790.961,833.894z M790.719,640.009c-43.896,0-81.138,32.899-86.627,76.527
				c-6.019,47.833,28,91.645,75.833,97.664c3.662,0.461,7.374,0.694,11.037,0.694c43.896,0,81.137-32.899,86.627-76.527
				c6.018-47.833-28-91.645-75.833-97.664C798.094,640.243,794.381,640.009,790.719,640.009z"/>
		</g>
		<g>
			<path style="fill:#FFFFFF;" d="M1331.877,1032.888c-18.807,149.471-180.46,252.22-361.062,229.495
				c-180.601-22.724-311.761-162.316-292.954-311.788S852.278,641.53,1045.87,665.889S1350.684,883.417,1331.877,1032.888z"/>
			<path d="M1020.763,1275.031c-16.938,0-34.141-1.084-51.133-3.222c-89.536-11.267-170.15-50.788-226.993-111.284
				c-27.795-29.582-48.408-62.594-61.266-98.117c-13.37-36.938-17.722-74.957-12.936-112.999
				c9.086-72.204,48.53-145.663,108.22-201.541c64.722-60.589,146.364-93.958,229.886-93.958c13.42,0,27.052,0.859,40.515,2.553
				c91.744,11.544,173.148,61.446,229.217,140.513c50.449,71.142,74.759,159.776,65.03,237.097
				c-8.521,67.717-46.127,129.367-105.891,173.594C1176.711,1251.107,1100.48,1275.031,1020.763,1275.031z M1006.541,672.911
				c-169.98,0-302.308,144.195-319.254,278.871c-8.736,69.432,15.838,138.945,69.196,195.733
				c53.821,57.281,130.36,94.729,215.518,105.443c16.209,2.039,32.614,3.073,48.761,3.073c155.899,0,285.597-96.44,301.688-224.329
				c9.151-72.729-13.905-156.368-61.677-223.735c-52.951-74.67-129.693-121.78-216.09-132.651
				C1032.005,673.719,1019.171,672.911,1006.541,672.911z"/>
		</g>
		<g>
			<path style="fill:#333333;" d="M1284.91,1154.678c0,0,65.699,84.883,13.66,159.545c-52.039,74.662-185.616,44.268-218.308,51.914
				c-32.692,7.646-55.918,3.613-76.212-23.505c-22.531-30.108,29.967-149.451,205.089-106.782"/>
			<path d="M1054.412,1378.991c-24.258,0-42.387-9.847-57.967-30.667c-11.637-15.55-8.061-44.129,8.694-69.499
				c11.074-16.769,32.483-39.452,71.588-52.29c37.968-12.464,83.275-12.437,134.663,0.085c5.098,1.241,8.223,6.381,6.98,11.479
				s-6.382,8.227-11.479,6.98c-47.89-11.667-89.692-11.834-124.238-0.492c-33.911,11.133-52.248,30.458-61.66,44.709
				c-14.548,22.027-14.218,41.121-9.336,47.644c16.477,22.019,34.488,27.423,66.441,19.948c9.496-2.22,24.585-1.708,43.689-1.062
				c52.983,1.796,133.062,4.511,168.988-47.035c19.693-28.254,23.6-61.521,11.612-98.879c-9.226-28.752-24.842-49.225-24.998-49.428
				c-3.198-4.153-2.432-10.117,1.718-13.32c4.148-3.205,10.105-2.447,13.314,1.7c0.712,0.92,17.556,22.894,27.868,54.654
				c13.933,42.915,9.117,83.074-13.927,116.137c-18.645,26.75-47.762,43.452-89.017,51.062c-33.702,6.218-68.36,5.04-96.203,4.099
				c-16.998-0.576-31.678-1.073-38.718,0.572C1072.227,1377.773,1062.94,1378.991,1054.412,1378.991z"/>
		</g>
		<g>
			<path style="fill:#333333;" d="M725.217,1136.512c0,0-86.578,101.571-34.539,176.233
				c52.039,74.662,185.616,44.268,218.308,51.914c32.692,7.646,55.918,8.046,76.212-19.072
				c22.531-30.108-17.532-143.828-188.834-121.56"/>
			<path d="M940.083,1378.656c-11.027,0-22.24-2.169-33.261-4.747c-7.041-1.646-21.72-1.148-38.718-0.572
				c-27.846,0.945-62.501,2.118-96.204-4.098c-41.255-7.61-70.373-24.313-89.016-51.062c-23.265-33.38-24.358-76.723-3.16-125.345
				c15.525-35.608,37.342-61.403,38.263-62.484c3.403-3.992,9.4-4.472,13.393-1.066c3.993,3.403,4.471,9.399,1.067,13.393
				c-1.029,1.214-81.115,97.006-33.975,164.638c35.927,51.547,116,48.834,168.989,47.035c19.105-0.646,34.195-1.159,43.688,1.062
				c31.618,7.393,49.624,6.96,66.442-15.514c6.063-8.102,5.832-28.135-6.536-49.303c-8.115-13.888-24.389-33.188-55.833-46.265
				c-31.812-13.232-71.39-16.892-117.635-10.88c-5.207,0.67-9.969-2.994-10.646-8.196c-0.676-5.203,2.993-9.969,8.196-10.646
				c49.593-6.445,92.451-2.35,127.381,12.178c36.312,15.103,55.358,37.822,64.941,54.223c14.956,25.595,17.153,54.492,5.344,70.272
				C976.996,1372.403,958.807,1378.656,940.083,1378.656z"/>
		</g>
		<g>
			<path style="fill:#333333;" d="M913.996,877.664c0,0-88.329-23.416-126.882,64.486c-38.553,87.902,41.871,134.811,83.868,120.051
				c41.997-14.76,29.642-70.38,66.68-84.201C974.7,964.178,966.361,889.751,913.996,877.664z"/>
		</g>
		<g>
			<path style="fill:#333333;" d="M1122.078,904.462c0,0,91.377-0.804,106.952,93.908s-73.963,120.236-110.994,95.532
				c-37.031-24.704-11.282-75.529-43.742-98.095C1041.834,973.241,1068.351,903.2,1122.078,904.462z"/>
		</g>
		<g>
			
				<ellipse transform="matrix(0.2278 -0.9737 0.9737 0.2278 -265.4814 1581.2087)" cx="864.145" cy="957.979" rx="27.098" ry="27.099"/>
		</g>
		<g>
			
				<ellipse transform="matrix(0.3741 -0.9274 0.9274 0.3741 -202.1965 1688.2002)" cx="1149.57" cy="993.893" rx="27.098" ry="27.099"/>
		</g>
		<g>
			<path d="M1037.196,997.876c-1.747,13.885-18.773,31.424-36.768,29.16c-17.995-2.264-30.145-23.475-28.398-37.359
				c1.747-13.885,16.934-16.809,34.929-14.545C1024.954,977.396,1038.943,983.992,1037.196,997.876z"/>
		</g>
		<g>
			<path d="M1032.46,1080.242c-3.476,0-7.091-0.384-10.763-1.308c-9.781-2.459-18.166-8.167-25.034-17.02
				c-8.795,6.835-18.275,10.287-28.296,10.288c-0.059,0-0.115,0-0.174-0.001c-22.048-0.088-37.76-17.435-38.418-18.173
				c-3.491-3.917-3.145-9.922,0.772-13.413c3.917-3.489,9.922-3.146,13.413,0.772c0.078,0.085,10.894,11.814,24.402,11.814
				c0.007,0,0.013,0,0.02,0c7.898-0.007,15.667-4.166,23.089-12.362c2.081-2.299,5.153-3.437,8.227-3.049
				c3.076,0.387,5.769,2.251,7.216,4.992c5.185,9.825,11.717,15.788,19.416,17.725c13.049,3.281,26.347-5.337,26.478-5.425
				c4.352-2.928,10.256-1.776,13.187,2.575c2.93,4.353,1.777,10.256-2.575,13.187
				C1062.74,1071.302,1049.23,1080.242,1032.46,1080.242z"/>
		</g>
		<g>
			<path d="M998.525,1056.718c-0.396,0-0.795-0.024-1.198-0.075c-5.206-0.655-8.895-5.406-8.24-10.611l3.429-27.252
				c0.655-5.205,5.409-8.894,10.611-8.24c5.206,0.655,8.896,5.406,8.24,10.611l-3.429,27.252
				C1007.334,1053.206,1003.242,1056.718,998.525,1056.718z"/>
		</g>
		<g>
			<circle style="fill:#FFFFFF;" cx="875" cy="950.078" r="5.5"/>
		</g>
		<g>
			<circle style="fill:#FFFFFF;" cx="1160" cy="984.578" r="5.5"/>
		</g>
	</g>
</g>
</svg>
