<svg width="32" height="33" viewBox="0 0 32 33" fill="currentColor" xmlns="http://www.w3.org/2000/svg">
<rect x="0.5" y="1" width="31" height="31" fill="black" fill-opacity="0.2" stroke="#FEB95A"/>
<path d="M15.216 8.464L17.104 8.896C16.432 11.424 15.296 13.936 14.016 15.52C13.68 15.184 12.912 14.56 12.48 14.272C13.696 12.896 14.672 10.688 15.216 8.464ZM14.768 15.584L16.624 15.968C16.176 18 15.344 20.048 14.448 21.344C14.08 21.04 13.264 20.544 12.816 20.304C13.712 19.184 14.4 17.36 14.768 15.584ZM15.568 11.28H22.128V13.056H14.848L15.568 11.28ZM17.408 12.064H19.312V21.296C19.312 22.224 19.152 22.752 18.576 23.072C18.016 23.376 17.232 23.456 16.208 23.456C16.112 22.896 15.824 22.048 15.552 21.52C16.224 21.552 16.896 21.536 17.12 21.536C17.328 21.536 17.408 21.488 17.408 21.28V12.064ZM19.872 16L21.6 15.424C22.432 17.072 23.12 19.2 23.344 20.656L21.504 21.296C21.328 19.856 20.656 17.648 19.872 16ZM21.616 11.28H21.872L22.176 11.232L23.52 11.472C23.328 12.784 23.04 14.272 22.832 15.232L21.184 14.944C21.328 14.08 21.504 12.656 21.616 11.536V11.28ZM11.792 8.48L13.6 9.04C12.56 11.776 10.896 14.656 9.152 16.48C8.976 16.016 8.464 14.96 8.128 14.496C9.584 13.04 10.976 10.768 11.792 8.48ZM10.24 12.896L12.064 11.072L12.08 11.088V23.424H10.24V12.896Z" fill="#FEB95A"/>
</svg>