<?xml version="1.0" encoding="UTF-8"?>
<svg width="20px" height="18px" viewBox="0 0 20 18" version="1.1" xmlns="http://www.w3.org/2000/svg" xmlns:xlink="http://www.w3.org/1999/xlink">
    <title>微信</title>
    <g id="最终方案4.18" stroke="none" stroke-width="1" fill="none" fill-rule="evenodd">
        <g id="切图" transform="translate(-2434, -639)">
            <g id="微信" transform="translate(2434, 639)">
                <rect id="矩形" fill="#FFFFFF" opacity="0" x="0" y="0" width="20" height="18"></rect>
                <g id="编组-21" transform="translate(0, 1)" fill="#00D864" fill-rule="nonzero">
                    <g id="微信">
                        <path d="M13.2934407,4.8398926 C13.5192942,4.8398926 13.7414653,4.8570771 13.9648638,4.88162639 C13.3634062,2.08055236 10.3696203,0 6.95113157,0 C3.13003452,0 0,2.60345224 0,5.91146912 C0,7.82017645 1.04088991,9.38764864 2.7814346,10.6052934 L2.08668968,12.6956655 L4.51706943,11.4780207 C5.38611431,11.6486383 6.08331415,11.8253932 6.95113157,11.8253932 C7.16962025,11.8253932 7.38565401,11.8155735 7.59923283,11.7996164 C7.46421174,11.3344074 7.38442654,10.8483314 7.38442654,10.3413886 C7.38565401,7.30464135 9.99278865,4.8398926 13.2934407,4.8398926 L13.2934407,4.8398926 Z M9.55703874,2.95573456 C10.0823936,2.95573456 10.4273111,3.30065209 10.4273111,3.82355198 C10.4273111,4.34399693 10.0823936,4.69259685 9.55703874,4.69259685 C9.03782125,4.69259685 8.51492137,4.34399693 8.51492137,3.82355198 C8.51492137,3.29942463 9.03659379,2.95573456 9.55703874,2.95573456 Z M4.69259685,4.69259685 C4.17092443,4.69259685 3.64556962,4.34399693 3.64556962,3.82355198 C3.64556962,3.30065209 4.17092443,2.95573456 4.69259685,2.95573456 C5.21426928,2.95573456 5.56041427,3.29942463 5.56041427,3.82355198 C5.56041427,4.34399693 5.21426928,4.69259685 4.69259685,4.69259685 Z M19.6394323,10.257921 C19.6394323,7.47894131 16.8579977,5.21426928 13.7341005,5.21426928 C10.4260836,5.21426928 7.82263138,7.48016878 7.82263138,10.257921 C7.82263138,13.0442654 10.4273111,15.3015727 13.7341005,15.3015727 C14.4263905,15.3015727 15.1248178,15.1285002 15.8195627,14.9542002 L17.7258151,16 L17.2029152,14.2619102 C18.5985424,13.2136555 19.6394323,11.8253932 19.6394323,10.257921 Z M11.8168009,9.38764864 C11.4718834,9.38764864 11.122056,9.04395857 11.122056,8.69290372 C11.122056,8.34675873 11.4718834,7.9981588 11.8168009,7.9981588 C12.3446107,7.9981588 12.6870733,8.34675873 12.6870733,8.69290372 C12.6870733,9.04395857 12.3446107,9.38764864 11.8168009,9.38764864 Z M15.6403529,9.38764864 C15.2978903,9.38764864 14.9492904,9.04395857 14.9492904,8.69290372 C14.9492904,8.34675873 15.2966628,7.9981588 15.6403529,7.9981588 C16.1632528,7.9981588 16.5106252,8.34675873 16.5106252,8.69290372 C16.5106252,9.04395857 16.1632528,9.38764864 15.6403529,9.38764864 Z" id="形状"></path>
                    </g>
                </g>
            </g>
        </g>
    </g>
</svg>