<svg  fill="none" xmlns="http://www.w3.org/2000/svg">
<g opacity="0.6">
<path d="M547.3 407.4C548.294 407.4 549.1 406.594 549.1 405.6C549.1 404.606 548.294 403.8 547.3 403.8C546.306 403.8 545.5 404.606 545.5 405.6C545.5 406.594 546.306 407.4 547.3 407.4Z" fill="white"/>
<path d="M747.2 362.4C747.863 362.4 748.4 361.863 748.4 361.2C748.4 360.537 747.863 360 747.2 360C746.537 360 746 360.537 746 361.2C746 361.863 746.537 362.4 747.2 362.4Z" fill="white"/>
<path d="M648.9 343.7C649.728 343.7 650.4 343.028 650.4 342.2C650.4 341.372 649.728 340.7 648.9 340.7C648.071 340.7 647.4 341.372 647.4 342.2C647.4 343.028 648.071 343.7 648.9 343.7Z" fill="white"/>
<path d="M601.2 343.6C602.305 343.6 603.2 342.705 603.2 341.6C603.2 340.495 602.305 339.6 601.2 339.6C600.095 339.6 599.2 340.495 599.2 341.6C599.2 342.705 600.095 343.6 601.2 343.6Z" fill="white"/>
<path d="M576.4 257C577.284 257 578 256.284 578 255.4C578 254.516 577.284 253.8 576.4 253.8C575.516 253.8 574.8 254.516 574.8 255.4C574.8 256.284 575.516 257 576.4 257Z" fill="white"/>
<path d="M631.2 243.3C632.084 243.3 632.8 242.584 632.8 241.7C632.8 240.816 632.084 240.1 631.2 240.1C630.316 240.1 629.6 240.816 629.6 241.7C629.6 242.584 630.316 243.3 631.2 243.3Z" fill="white"/>
<path d="M570.5 191.9C571.163 191.9 571.7 191.363 571.7 190.7C571.7 190.037 571.163 189.5 570.5 189.5C569.837 189.5 569.3 190.037 569.3 190.7C569.3 191.363 569.837 191.9 570.5 191.9Z" fill="white"/>
<path d="M460.1 294.5C460.763 294.5 461.3 293.963 461.3 293.3C461.3 292.637 460.763 292.1 460.1 292.1C459.437 292.1 458.9 292.637 458.9 293.3C458.9 293.963 459.437 294.5 460.1 294.5Z" fill="white"/>
<path d="M468 366.3C468.663 366.3 469.2 365.763 469.2 365.1C469.2 364.437 468.663 363.9 468 363.9C467.337 363.9 466.8 364.437 466.8 365.1C466.8 365.763 467.337 366.3 468 366.3Z" fill="white"/>
<path d="M470.6 487.8C471.263 487.8 471.8 487.263 471.8 486.6C471.8 485.937 471.263 485.4 470.6 485.4C469.937 485.4 469.4 485.937 469.4 486.6C469.4 487.263 469.937 487.8 470.6 487.8Z" fill="white"/>
<path d="M565.9 466.9C566.563 466.9 567.1 466.363 567.1 465.7C567.1 465.037 566.563 464.5 565.9 464.5C565.237 464.5 564.7 465.037 564.7 465.7C564.7 466.363 565.237 466.9 565.9 466.9Z" fill="white"/>
<path d="M347.9 484.3C348.563 484.3 349.1 483.763 349.1 483.1C349.1 482.437 348.563 481.9 347.9 481.9C347.237 481.9 346.7 482.437 346.7 483.1C346.7 483.763 347.237 484.3 347.9 484.3Z" fill="white"/>
<path d="M145.5 457C146.384 457 147.1 456.284 147.1 455.4C147.1 454.516 146.384 453.8 145.5 453.8C144.616 453.8 143.9 454.516 143.9 455.4C143.9 456.284 144.616 457 145.5 457Z" fill="white"/>
<path d="M74.3 432.2C75.1836 432.2 75.9 431.484 75.9 430.6C75.9 429.716 75.1836 429 74.3 429C73.4163 429 72.7 429.716 72.7 430.6C72.7 431.484 73.4163 432.2 74.3 432.2Z" fill="white"/>
<path d="M81.4999 450.7C82.1074 450.7 82.5999 450.208 82.5999 449.6C82.5999 448.992 82.1074 448.5 81.4999 448.5C80.8924 448.5 80.3999 448.992 80.3999 449.6C80.3999 450.208 80.8924 450.7 81.4999 450.7Z" fill="white"/>
<path d="M35.1 364.5C35.7075 364.5 36.2 364.008 36.2 363.4C36.2 362.792 35.7075 362.3 35.1 362.3C34.4925 362.3 34 362.792 34 363.4C34 364.008 34.4925 364.5 35.1 364.5Z" fill="white"/>
<path d="M142.2 360.5C142.808 360.5 143.3 360.008 143.3 359.4C143.3 358.792 142.808 358.3 142.2 358.3C141.593 358.3 141.1 358.792 141.1 359.4C141.1 360.008 141.593 360.5 142.2 360.5Z" fill="white"/>
<path d="M104.3 293C105.128 293 105.8 292.328 105.8 291.5C105.8 290.672 105.128 290 104.3 290C103.472 290 102.8 290.672 102.8 291.5C102.8 292.328 103.472 293 104.3 293Z" fill="white"/>
<path d="M76.2001 292C76.8076 292 77.3001 291.508 77.3001 290.9C77.3001 290.292 76.8076 289.8 76.2001 289.8C75.5926 289.8 75.1001 290.292 75.1001 290.9C75.1001 291.508 75.5926 292 76.2001 292Z" fill="white"/>
<path d="M91.9 218.2C92.5076 218.2 93 217.708 93 217.1C93 216.492 92.5076 216 91.9 216C91.2925 216 90.8 216.492 90.8 217.1C90.8 217.708 91.2925 218.2 91.9 218.2Z" fill="white"/>
<path d="M157.2 229.9C157.808 229.9 158.3 229.408 158.3 228.8C158.3 228.193 157.808 227.7 157.2 227.7C156.593 227.7 156.1 228.193 156.1 228.8C156.1 229.408 156.593 229.9 157.2 229.9Z" fill="white"/>
<path d="M47.4999 224.7C48.1074 224.7 48.5999 224.208 48.5999 223.6C48.5999 222.992 48.1074 222.5 47.4999 222.5C46.8924 222.5 46.3999 222.992 46.3999 223.6C46.3999 224.208 46.8924 224.7 47.4999 224.7Z" fill="white"/>
<path d="M223.8 361.8C224.407 361.8 224.9 361.308 224.9 360.7C224.9 360.092 224.407 359.6 223.8 359.6C223.192 359.6 222.7 360.092 222.7 360.7C222.7 361.308 223.192 361.8 223.8 361.8Z" fill="white"/>
<path d="M302.2 270.4C302.808 270.4 303.3 269.908 303.3 269.3C303.3 268.692 302.808 268.2 302.2 268.2C301.593 268.2 301.1 268.692 301.1 269.3C301.1 269.908 301.593 270.4 302.2 270.4Z" fill="white"/>
<path d="M315.3 252.1C315.907 252.1 316.4 251.608 316.4 251C316.4 250.392 315.907 249.9 315.3 249.9C314.692 249.9 314.2 250.392 314.2 251C314.2 251.608 314.692 252.1 315.3 252.1Z" fill="white"/>
<path d="M387.1 199.9C387.708 199.9 388.2 199.408 388.2 198.8C388.2 198.193 387.708 197.7 387.1 197.7C386.492 197.7 386 198.193 386 198.8C386 199.408 386.492 199.9 387.1 199.9Z" fill="white"/>
<path d="M485.1 259.3C485.708 259.3 486.2 258.808 486.2 258.2C486.2 257.592 485.708 257.1 485.1 257.1C484.492 257.1 484 257.592 484 258.2C484 258.808 484.492 259.3 485.1 259.3Z" fill="white"/>
<path d="M929.7 52.8C930.363 52.8 930.9 52.2627 930.9 51.6C930.9 50.9372 930.363 50.4 929.7 50.4C929.037 50.4 928.5 50.9372 928.5 51.6C928.5 52.2627 929.037 52.8 929.7 52.8Z" fill="white"/>
<path d="M937.5 124.6C938.163 124.6 938.7 124.063 938.7 123.4C938.7 122.737 938.163 122.2 937.5 122.2C936.837 122.2 936.3 122.737 936.3 123.4C936.3 124.063 936.837 124.6 937.5 124.6Z" fill="white"/>
<path d="M940.1 246.1C940.763 246.1 941.3 245.563 941.3 244.9C941.3 244.237 940.763 243.7 940.1 243.7C939.437 243.7 938.9 244.237 938.9 244.9C938.9 245.563 939.437 246.1 940.1 246.1Z" fill="white"/>
<path d="M817.4 242.6C818.063 242.6 818.6 242.063 818.6 241.4C818.6 240.737 818.063 240.2 817.4 240.2C816.737 240.2 816.2 240.737 816.2 241.4C816.2 242.063 816.737 242.6 817.4 242.6Z" fill="white"/>
<path d="M615 215.4C615.884 215.4 616.6 214.684 616.6 213.8C616.6 212.916 615.884 212.2 615 212.2C614.116 212.2 613.4 212.916 613.4 213.8C613.4 214.684 614.116 215.4 615 215.4Z" fill="white"/>
<path d="M543.8 190.5C544.684 190.5 545.4 189.784 545.4 188.9C545.4 188.016 544.684 187.3 543.8 187.3C542.916 187.3 542.2 188.016 542.2 188.9C542.2 189.784 542.916 190.5 543.8 190.5Z" fill="white"/>
<path d="M551 209C551.607 209 552.1 208.507 552.1 207.9C552.1 207.292 551.607 206.8 551 206.8C550.392 206.8 549.9 207.292 549.9 207.9C549.9 208.507 550.392 209 551 209Z" fill="white"/>
<path d="M611.7 118.9C612.308 118.9 612.8 118.408 612.8 117.8C612.8 117.192 612.308 116.7 611.7 116.7C611.093 116.7 610.6 117.192 610.6 117.8C610.6 118.408 611.093 118.9 611.7 118.9Z" fill="white"/>
<path d="M573.8 51.3C574.628 51.3 575.3 50.6284 575.3 49.8C575.3 48.9716 574.628 48.3 573.8 48.3C572.972 48.3 572.3 48.9716 572.3 49.8C572.3 50.6284 572.972 51.3 573.8 51.3Z" fill="white"/>
<path d="M545.8 50.3C546.407 50.3 546.9 49.8075 546.9 49.2C546.9 48.5925 546.407 48.1 545.8 48.1C545.192 48.1 544.7 48.5925 544.7 49.2C544.7 49.8075 545.192 50.3 545.8 50.3Z" fill="white"/>
<path d="M693.4 120.2C694.008 120.2 694.5 119.708 694.5 119.1C694.5 118.492 694.008 118 693.4 118C692.793 118 692.3 118.492 692.3 119.1C692.3 119.708 692.793 120.2 693.4 120.2Z" fill="white"/>
<path d="M771.7 28.7C772.308 28.7 772.8 28.2075 772.8 27.6C772.8 26.9925 772.308 26.5 771.7 26.5C771.093 26.5 770.6 26.9925 770.6 27.6C770.6 28.2075 771.093 28.7 771.7 28.7Z" fill="white"/>
<path d="M954.6 17.6C955.207 17.6 955.7 17.1075 955.7 16.5C955.7 15.8925 955.207 15.4 954.6 15.4C953.992 15.4 953.5 15.8925 953.5 16.5C953.5 17.1075 953.992 17.6 954.6 17.6Z" fill="white"/>
<path d="M557.6 301.8C558.207 301.8 558.7 301.308 558.7 300.7C558.7 300.092 558.207 299.6 557.6 299.6C556.992 299.6 556.5 300.092 556.5 300.7C556.5 301.308 556.992 301.8 557.6 301.8Z" fill="white"/>
<path d="M674.3 470.1C674.963 470.1 675.5 469.563 675.5 468.9C675.5 468.237 674.963 467.7 674.3 467.7C673.637 467.7 673.1 468.237 673.1 468.9C673.1 469.563 673.637 470.1 674.3 470.1Z" fill="white"/>
<path d="M750.1 478C750.763 478 751.3 477.463 751.3 476.8C751.3 476.137 750.763 475.6 750.1 475.6C749.437 475.6 748.9 476.137 748.9 476.8C748.9 477.463 749.437 478 750.1 478Z" fill="white"/>
<path d="M837.6 481.9C838.263 481.9 838.8 481.363 838.8 480.7C838.8 480.037 838.263 479.5 837.6 479.5C836.937 479.5 836.4 480.037 836.4 480.7C836.4 481.363 836.937 481.9 837.6 481.9Z" fill="white"/>
<path d="M833.7 451.9C834.363 451.9 834.9 451.363 834.9 450.7C834.9 450.037 834.363 449.5 833.7 449.5C833.037 449.5 832.5 450.037 832.5 450.7C832.5 451.363 833.037 451.9 833.7 451.9Z" fill="white"/>
<path d="M858.5 436.2C859.163 436.2 859.7 435.663 859.7 435C859.7 434.337 859.163 433.8 858.5 433.8C857.837 433.8 857.3 434.337 857.3 435C857.3 435.663 857.837 436.2 858.5 436.2Z" fill="white"/>
<path d="M919.2 334.1C919.752 334.1 920.2 333.652 920.2 333.1C920.2 332.548 919.752 332.1 919.2 332.1C918.648 332.1 918.2 332.548 918.2 333.1C918.2 333.652 918.648 334.1 919.2 334.1Z" fill="white"/>
<path d="M1027 396.6C1028.16 396.6 1029.1 395.66 1029.1 394.5C1029.1 393.34 1028.16 392.4 1027 392.4C1025.84 392.4 1024.9 393.34 1024.9 394.5C1024.9 395.66 1025.84 396.6 1027 396.6Z" fill="white"/>
<path d="M1032.9 383.5C1033.34 383.5 1033.7 383.142 1033.7 382.7C1033.7 382.258 1033.34 381.9 1032.9 381.9C1032.46 381.9 1032.1 382.258 1032.1 382.7C1032.1 383.142 1032.46 383.5 1032.9 383.5Z" fill="white"/>
<path d="M1036.1 283C1036.54 283 1036.9 282.642 1036.9 282.2C1036.9 281.758 1036.54 281.4 1036.1 281.4C1035.66 281.4 1035.3 281.758 1035.3 282.2C1035.3 282.642 1035.66 283 1036.1 283Z" fill="white"/>
<path d="M1079.9 209.8C1080.34 209.8 1080.7 209.442 1080.7 209C1080.7 208.558 1080.34 208.2 1079.9 208.2C1079.46 208.2 1079.1 208.558 1079.1 209C1079.1 209.442 1079.46 209.8 1079.9 209.8Z" fill="white"/>
<path d="M1003.5 215C1003.94 215 1004.3 214.642 1004.3 214.2C1004.3 213.758 1003.94 213.4 1003.5 213.4C1003.06 213.4 1002.7 213.758 1002.7 214.2C1002.7 214.642 1003.06 215 1003.5 215Z" fill="white"/>
<path d="M1072.2 480.4C1072.75 480.4 1073.2 479.952 1073.2 479.4C1073.2 478.848 1072.75 478.4 1072.2 478.4C1071.65 478.4 1071.2 478.848 1071.2 479.4C1071.2 479.952 1071.65 480.4 1072.2 480.4Z" fill="white"/>
<path d="M999.7 458.8C1000.25 458.8 1000.7 458.352 1000.7 457.8C1000.7 457.248 1000.25 456.8 999.7 456.8C999.148 456.8 998.7 457.248 998.7 457.8C998.7 458.352 999.148 458.8 999.7 458.8Z" fill="white"/>
<path d="M982.7 504.5C983.252 504.5 983.7 504.052 983.7 503.5C983.7 502.948 983.252 502.5 982.7 502.5C982.148 502.5 981.7 502.948 981.7 503.5C981.7 504.052 982.148 504.5 982.7 504.5Z" fill="white"/>
<path d="M953.9 331.8C954.452 331.8 954.9 331.352 954.9 330.8C954.9 330.248 954.452 329.8 953.9 329.8C953.348 329.8 952.9 330.248 952.9 330.8C952.9 331.352 953.348 331.8 953.9 331.8Z" fill="white"/>
<path d="M950.3 287.7C950.852 287.7 951.3 287.252 951.3 286.7C951.3 286.148 950.852 285.7 950.3 285.7C949.748 285.7 949.3 286.148 949.3 286.7C949.3 287.252 949.748 287.7 950.3 287.7Z" fill="white"/>
<path d="M837.3 280.2C837.852 280.2 838.3 279.752 838.3 279.2C838.3 278.648 837.852 278.2 837.3 278.2C836.748 278.2 836.3 278.648 836.3 279.2C836.3 279.752 836.748 280.2 837.3 280.2Z" fill="white"/>
<path d="M876.5 244.3C877.052 244.3 877.5 243.852 877.5 243.3C877.5 242.748 877.052 242.3 876.5 242.3C875.948 242.3 875.5 242.748 875.5 243.3C875.5 243.852 875.948 244.3 876.5 244.3Z" fill="white"/>
<path d="M728.9 239.1C729.452 239.1 729.9 238.652 729.9 238.1C729.9 237.548 729.452 237.1 728.9 237.1C728.348 237.1 727.9 237.548 727.9 238.1C727.9 238.652 728.348 239.1 728.9 239.1Z" fill="white"/>
<path d="M669.1 448.6C669.763 448.6 670.3 448.063 670.3 447.4C670.3 446.737 669.763 446.2 669.1 446.2C668.437 446.2 667.9 446.737 667.9 447.4C667.9 448.063 668.437 448.6 669.1 448.6Z" fill="white"/>
<path d="M1161.5 208.3C1162.16 208.3 1162.7 207.763 1162.7 207.1C1162.7 206.437 1162.16 205.9 1161.5 205.9C1160.84 205.9 1160.3 206.437 1160.3 207.1C1160.3 207.763 1160.84 208.3 1161.5 208.3Z" fill="white"/>
<path d="M1063.2 189.7C1064.03 189.7 1064.7 189.028 1064.7 188.2C1064.7 187.372 1064.03 186.7 1063.2 186.7C1062.37 186.7 1061.7 187.372 1061.7 188.2C1061.7 189.028 1062.37 189.7 1063.2 189.7Z" fill="white"/>
<path d="M1045.5 89.2C1046.38 89.2 1047.1 88.4837 1047.1 87.6C1047.1 86.7163 1046.38 86 1045.5 86C1044.62 86 1043.9 86.7163 1043.9 87.6C1043.9 88.4837 1044.62 89.2 1045.5 89.2Z" fill="white"/>
<path d="M1427.8 342C1428.46 342 1429 341.463 1429 340.8C1429 340.137 1428.46 339.6 1427.8 339.6C1427.14 339.6 1426.6 340.137 1426.6 340.8C1426.6 341.463 1427.14 342 1427.8 342Z" fill="white"/>
<path d="M1435.6 413.9C1436.26 413.9 1436.8 413.363 1436.8 412.7C1436.8 412.037 1436.26 411.5 1435.6 411.5C1434.94 411.5 1434.4 412.037 1434.4 412.7C1434.4 413.363 1434.94 413.9 1435.6 413.9Z" fill="white"/>
<path d="M1354.4 92C1355.06 92 1355.6 91.4628 1355.6 90.8C1355.6 90.1373 1355.06 89.6 1354.4 89.6C1353.74 89.6 1353.2 90.1373 1353.2 90.8C1353.2 91.4628 1353.74 92 1354.4 92Z" fill="white"/>
<path d="M1231.7 88.5C1232.36 88.5 1232.9 87.9628 1232.9 87.3C1232.9 86.6373 1232.36 86.1 1231.7 86.1C1231.04 86.1 1230.5 86.6373 1230.5 87.3C1230.5 87.9628 1231.04 88.5 1231.7 88.5Z" fill="white"/>
<path d="M1029.3 61.3C1030.18 61.3 1030.9 60.5837 1030.9 59.7C1030.9 58.8164 1030.18 58.1 1029.3 58.1C1028.42 58.1 1027.7 58.8164 1027.7 59.7C1027.7 60.5837 1028.42 61.3 1029.3 61.3Z" fill="white"/>
<path d="M1109.9 408.1C1110.51 408.1 1111 407.608 1111 407C1111 406.393 1110.51 405.9 1109.9 405.9C1109.29 405.9 1108.8 406.393 1108.8 407C1108.8 407.608 1109.29 408.1 1109.9 408.1Z" fill="white"/>
<path d="M1191.5 409.4C1192.11 409.4 1192.6 408.908 1192.6 408.3C1192.6 407.692 1192.11 407.2 1191.5 407.2C1190.89 407.2 1190.4 407.692 1190.4 408.3C1190.4 408.908 1190.89 409.4 1191.5 409.4Z" fill="white"/>
<path d="M180.3 283.8C180.963 283.8 181.5 283.263 181.5 282.6C181.5 281.937 180.963 281.4 180.3 281.4C179.637 281.4 179.1 281.937 179.1 282.6C179.1 283.263 179.637 283.8 180.3 283.8Z" fill="white"/>
<path d="M1280.4 460.3C1281.01 460.3 1281.5 459.807 1281.5 459.2C1281.5 458.592 1281.01 458.1 1280.4 458.1C1279.79 458.1 1279.3 458.592 1279.3 459.2C1279.3 459.807 1279.79 460.3 1280.4 460.3Z" fill="white"/>
<path d="M1362.1 461.6C1362.71 461.6 1363.2 461.108 1363.2 460.5C1363.2 459.893 1362.71 459.4 1362.1 459.4C1361.49 459.4 1361 459.893 1361 460.5C1361 461.108 1361.49 461.6 1362.1 461.6Z" fill="white"/>
<path d="M1088.6 316.1C1089.26 316.1 1089.8 315.563 1089.8 314.9C1089.8 314.237 1089.26 313.7 1088.6 313.7C1087.94 313.7 1087.4 314.237 1087.4 314.9C1087.4 315.563 1087.94 316.1 1088.6 316.1Z" fill="white"/>
<path d="M1164.4 323.9C1165.06 323.9 1165.6 323.363 1165.6 322.7C1165.6 322.037 1165.06 321.5 1164.4 321.5C1163.74 321.5 1163.2 322.037 1163.2 322.7C1163.2 323.363 1163.74 323.9 1164.4 323.9Z" fill="white"/>
<path d="M1251.9 327.8C1252.56 327.8 1253.1 327.263 1253.1 326.6C1253.1 325.937 1252.56 325.4 1251.9 325.4C1251.24 325.4 1250.7 325.937 1250.7 326.6C1250.7 327.263 1251.24 327.8 1251.9 327.8Z" fill="white"/>
<path d="M1248 297.8C1248.66 297.8 1249.2 297.263 1249.2 296.6C1249.2 295.937 1248.66 295.4 1248 295.4C1247.34 295.4 1246.8 295.937 1246.8 296.6C1246.8 297.263 1247.34 297.8 1248 297.8Z" fill="white"/>
<path d="M1272.8 282.1C1273.46 282.1 1274 281.563 1274 280.9C1274 280.237 1273.46 279.7 1272.8 279.7C1272.14 279.7 1271.6 280.237 1271.6 280.9C1271.6 281.563 1272.14 282.1 1272.8 282.1Z" fill="white"/>
<path d="M1333.5 180C1334.05 180 1334.5 179.552 1334.5 179C1334.5 178.448 1334.05 178 1333.5 178C1332.95 178 1332.5 178.448 1332.5 179C1332.5 179.552 1332.95 180 1333.5 180Z" fill="white"/>
<path d="M1441.3 242.5C1442.46 242.5 1443.4 241.56 1443.4 240.4C1443.4 239.24 1442.46 238.3 1441.3 238.3C1440.14 238.3 1439.2 239.24 1439.2 240.4C1439.2 241.56 1440.14 242.5 1441.3 242.5Z" fill="white"/>
<path d="M1417.8 61C1418.24 61 1418.6 60.6418 1418.6 60.2C1418.6 59.7582 1418.24 59.4 1417.8 59.4C1417.36 59.4 1417 59.7582 1417 60.2C1417 60.6418 1417.36 61 1417.8 61Z" fill="white"/>
<path d="M1414 304.8C1414.55 304.8 1415 304.352 1415 303.8C1415 303.248 1414.55 302.8 1414 302.8C1413.45 302.8 1413 303.248 1413 303.8C1413 304.352 1413.45 304.8 1414 304.8Z" fill="white"/>
<path d="M1397 350.5C1397.55 350.5 1398 350.052 1398 349.5C1398 348.948 1397.55 348.5 1397 348.5C1396.45 348.5 1396 348.948 1396 349.5C1396 350.052 1396.45 350.5 1397 350.5Z" fill="white"/>
<path d="M1368.2 177.7C1368.75 177.7 1369.2 177.252 1369.2 176.7C1369.2 176.148 1368.75 175.7 1368.2 175.7C1367.65 175.7 1367.2 176.148 1367.2 176.7C1367.2 177.252 1367.65 177.7 1368.2 177.7Z" fill="white"/>
<path d="M1364.6 133.7C1365.15 133.7 1365.6 133.252 1365.6 132.7C1365.6 132.148 1365.15 131.7 1364.6 131.7C1364.05 131.7 1363.6 132.148 1363.6 132.7C1363.6 133.252 1364.05 133.7 1364.6 133.7Z" fill="white"/>
<path d="M1251.6 126.2C1252.15 126.2 1252.6 125.752 1252.6 125.2C1252.6 124.648 1252.15 124.2 1251.6 124.2C1251.05 124.2 1250.6 124.648 1250.6 125.2C1250.6 125.752 1251.05 126.2 1251.6 126.2Z" fill="white"/>
<path d="M1290.8 90.2C1291.35 90.2 1291.8 89.7523 1291.8 89.2C1291.8 88.6477 1291.35 88.2 1290.8 88.2C1290.25 88.2 1289.8 88.6477 1289.8 89.2C1289.8 89.7523 1290.25 90.2 1290.8 90.2Z" fill="white"/>
<path d="M1143.2 85C1143.75 85 1144.2 84.5523 1144.2 84C1144.2 83.4477 1143.75 83 1143.2 83C1142.65 83 1142.2 83.4477 1142.2 84C1142.2 84.5523 1142.65 85 1143.2 85Z" fill="white"/>
<path d="M1083.4 294.5C1084.06 294.5 1084.6 293.963 1084.6 293.3C1084.6 292.637 1084.06 292.1 1083.4 292.1C1082.74 292.1 1082.2 292.637 1082.2 293.3C1082.2 293.963 1082.74 294.5 1083.4 294.5Z" fill="white"/>
<path d="M148.5 57C149.163 57 149.7 56.4627 149.7 55.8C149.7 55.1373 149.163 54.6 148.5 54.6C147.837 54.6 147.3 55.1373 147.3 55.8C147.3 56.4627 147.837 57 148.5 57Z" fill="white"/>
<path d="M50.1001 38.3C50.9285 38.3 51.6001 37.6284 51.6001 36.8C51.6001 35.9716 50.9285 35.3 50.1001 35.3C49.2717 35.3 48.6001 35.9716 48.6001 36.8C48.6001 37.6284 49.2717 38.3 50.1001 38.3Z" fill="white"/>
<path d="M75.5999 164.7C76.2626 164.7 76.7999 164.163 76.7999 163.5C76.7999 162.837 76.2626 162.3 75.5999 162.3C74.9372 162.3 74.3999 162.837 74.3999 163.5C74.3999 164.163 74.9372 164.7 75.5999 164.7Z" fill="white"/>
<path d="M151.3 172.6C151.963 172.6 152.5 172.063 152.5 171.4C152.5 170.737 151.963 170.2 151.3 170.2C150.637 170.2 150.1 170.737 150.1 171.4C150.1 172.063 150.637 172.6 151.3 172.6Z" fill="white"/>
<path d="M238.8 176.5C239.463 176.5 240 175.963 240 175.3C240 174.637 239.463 174.1 238.8 174.1C238.137 174.1 237.6 174.637 237.6 175.3C237.6 175.963 238.137 176.5 238.8 176.5Z" fill="white"/>
<path d="M234.9 146.4C235.563 146.4 236.1 145.863 236.1 145.2C236.1 144.537 235.563 144 234.9 144C234.237 144 233.7 144.537 233.7 145.2C233.7 145.863 234.237 146.4 234.9 146.4Z" fill="white"/>
<path d="M259.7 130.8C260.363 130.8 260.9 130.263 260.9 129.6C260.9 128.937 260.363 128.4 259.7 128.4C259.037 128.4 258.5 128.937 258.5 129.6C258.5 130.263 259.037 130.8 259.7 130.8Z" fill="white"/>
<path d="M320.5 28.7C321.052 28.7 321.5 28.2523 321.5 27.7C321.5 27.1477 321.052 26.7 320.5 26.7C319.948 26.7 319.5 27.1477 319.5 27.7C319.5 28.2523 319.948 28.7 320.5 28.7Z" fill="white"/>
<path d="M428.2 91.2C429.36 91.2 430.3 90.2598 430.3 89.1C430.3 87.9402 429.36 87 428.2 87C427.04 87 426.1 87.9402 426.1 89.1C426.1 90.2598 427.04 91.2 428.2 91.2Z" fill="white"/>
<path d="M434.1 78.1C434.542 78.1 434.9 77.7418 434.9 77.3C434.9 76.8582 434.542 76.5 434.1 76.5C433.658 76.5 433.3 76.8582 433.3 77.3C433.3 77.7418 433.658 78.1 434.1 78.1Z" fill="white"/>
<path d="M473.4 175C473.952 175 474.4 174.552 474.4 174C474.4 173.448 473.952 173 473.4 173C472.848 173 472.4 173.448 472.4 174C472.4 174.552 472.848 175 473.4 175Z" fill="white"/>
<path d="M400.9 153.4C401.452 153.4 401.9 152.952 401.9 152.4C401.9 151.848 401.452 151.4 400.9 151.4C400.348 151.4 399.9 151.848 399.9 152.4C399.9 152.952 400.348 153.4 400.9 153.4Z" fill="white"/>
<path d="M342.9 455.4C343.784 455.4 344.5 454.684 344.5 453.8C344.5 452.916 343.784 452.2 342.9 452.2C342.016 452.2 341.3 452.916 341.3 453.8C341.3 454.684 342.016 455.4 342.9 455.4Z" fill="white"/>
<path d="M397.7 441.7C398.584 441.7 399.3 440.984 399.3 440.1C399.3 439.216 398.584 438.5 397.7 438.5C396.816 438.5 396.1 439.216 396.1 440.1C396.1 440.984 396.816 441.7 397.7 441.7Z" fill="white"/>
<path d="M337 390.4C337.663 390.4 338.2 389.863 338.2 389.2C338.2 388.537 337.663 388 337 388C336.337 388 335.8 388.537 335.8 389.2C335.8 389.863 336.337 390.4 337 390.4Z" fill="white"/>
<path d="M153.6 398.3C154.208 398.3 154.7 397.807 154.7 397.2C154.7 396.592 154.208 396.1 153.6 396.1C152.992 396.1 152.5 396.592 152.5 397.2C152.5 397.807 152.992 398.3 153.6 398.3Z" fill="white"/>
<path d="M251.6 457.8C252.208 457.8 252.7 457.307 252.7 456.7C252.7 456.092 252.208 455.6 251.6 455.6C250.992 455.6 250.5 456.092 250.5 456.7C250.5 457.307 250.992 457.8 251.6 457.8Z" fill="white"/>
<path d="M381.5 413.8C382.384 413.8 383.1 413.084 383.1 412.2C383.1 411.316 382.384 410.6 381.5 410.6C380.616 410.6 379.9 411.316 379.9 412.2C379.9 413.084 380.616 413.8 381.5 413.8Z" fill="white"/>
<path d="M310.3 389C311.184 389 311.9 388.284 311.9 387.4C311.9 386.516 311.184 385.8 310.3 385.8C309.416 385.8 308.7 386.516 308.7 387.4C308.7 388.284 309.416 389 310.3 389Z" fill="white"/>
<path d="M317.5 407.4C318.107 407.4 318.6 406.908 318.6 406.3C318.6 405.692 318.107 405.2 317.5 405.2C316.892 405.2 316.4 405.692 316.4 406.3C316.4 406.908 316.892 407.4 317.5 407.4Z" fill="white"/>
<path d="M239.9 373.4C240.452 373.4 240.9 372.952 240.9 372.4C240.9 371.848 240.452 371.4 239.9 371.4C239.348 371.4 238.9 371.848 238.9 372.4C238.9 372.952 239.348 373.4 239.9 373.4Z" fill="white"/>
<path d="M167.4 351.9C167.952 351.9 168.4 351.452 168.4 350.9C168.4 350.348 167.952 349.9 167.4 349.9C166.848 349.9 166.4 350.348 166.4 350.9C166.4 351.452 166.848 351.9 167.4 351.9Z" fill="white"/>
<path d="M134.6 110.6C135.208 110.6 135.7 110.108 135.7 109.5C135.7 108.892 135.208 108.4 134.6 108.4C133.992 108.4 133.5 108.892 133.5 109.5C133.5 110.108 133.992 110.6 134.6 110.6Z" fill="white"/>
<path d="M202.5 73.2C203.328 73.2 204 72.5284 204 71.7C204 70.8716 203.328 70.2 202.5 70.2C201.672 70.2 201 70.8716 201 71.7C201 72.5284 201.672 73.2 202.5 73.2Z" fill="white"/>
<path d="M203.2 44.7C203.808 44.7 204.3 44.2075 204.3 43.6C204.3 42.9925 203.808 42.5 203.2 42.5C202.593 42.5 202.1 42.9925 202.1 43.6C202.1 44.2075 202.593 44.7 203.2 44.7Z" fill="white"/>
<path d="M277 60.4C277.607 60.4 278.1 59.9075 278.1 59.3C278.1 58.6925 277.607 58.2 277 58.2C276.392 58.2 275.9 58.6925 275.9 59.3C275.9 59.9075 276.392 60.4 277 60.4Z" fill="white"/>
<path d="M724.6 174.9C725.207 174.9 725.7 174.408 725.7 173.8C725.7 173.193 725.207 172.7 724.6 172.7C723.992 172.7 723.5 173.193 723.5 173.8C723.5 174.408 723.992 174.9 724.6 174.9Z" fill="white"/>
<path d="M792.5 137.4C793.328 137.4 794 136.728 794 135.9C794 135.072 793.328 134.4 792.5 134.4C791.672 134.4 791 135.072 791 135.9C791 136.728 791.672 137.4 792.5 137.4Z" fill="white"/>
<path d="M793.2 108.9C793.808 108.9 794.3 108.408 794.3 107.8C794.3 107.192 793.808 106.7 793.2 106.7C792.593 106.7 792.1 107.192 792.1 107.8C792.1 108.408 792.593 108.9 793.2 108.9Z" fill="white"/>
<path d="M867 124.6C867.607 124.6 868.1 124.108 868.1 123.5C868.1 122.892 867.607 122.4 867 122.4C866.392 122.4 865.9 122.892 865.9 123.5C865.9 124.108 866.392 124.6 867 124.6Z" fill="white"/>
<path d="M202.6 283.6C203.484 283.6 204.2 282.884 204.2 282C204.2 281.116 203.484 280.4 202.6 280.4C201.716 280.4 201 281.116 201 282C201 282.884 201.716 283.6 202.6 283.6Z" fill="white"/>
<path d="M355.1 26.4C355.652 26.4 356.1 25.9523 356.1 25.4C356.1 24.8477 355.652 24.4 355.1 24.4C354.548 24.4 354.1 24.8477 354.1 25.4C354.1 25.9523 354.548 26.4 355.1 26.4Z" fill="white"/>
<path d="M70.3001 143.2C70.9628 143.2 71.5001 142.663 71.5001 142C71.5001 141.337 70.9628 140.8 70.3001 140.8C69.6374 140.8 69.1001 141.337 69.1001 142C69.1001 142.663 69.6374 143.2 70.3001 143.2Z" fill="white"/>
</g>
</svg>
