<?xml version="1.0" encoding="UTF-8"?>
<svg id="b" data-name="Layer 2" xmlns="http://www.w3.org/2000/svg" width="400" height="160" xmlns:xlink="http://www.w3.org/1999/xlink" viewBox="0 0 400 160">
  <defs>
    <style>
      .g {
        fill: none;
      }

      .h {
        font-family: DFWaWaSC-W5-GBpc-EUC-H, 'Wawati SC';
        font-size: 21.49px;
      }

      .h, .i {
        fill: #fff;
      }

      .j {
        fill: #f4649c;
      }

      .k {
        fill: #f2f0e9;
      }

      .l {
        fill: #f2dd72;
      }

      .m, .n, .o {
        fill: #044bd9;
      }

      .p {
        fill: #fc7fa9;
      }

      .q {
        fill: #ffa1c5;
      }

      .r {
        fill: #ffd4dd;
      }

      .s {
        fill: #fccad5;
      }

      .t {
        fill: #ffbe7c;
      }

      .u {
        fill: #fca75b;
      }

      .v {
        fill: #edcd48;
      }

      .w {
        fill: #9ce8ef;
      }

      .x {
        fill: #bcf1fa;
      }

      .n {
        font-family: STSongti-SC-Bold, 'Songti SC';
        font-size: 12.89px;
        font-weight: 700;
      }

      .y {
        clip-path: url(#e);
      }

      .z {
        clip-path: url(#d);
      }

      .o {
        font-family: HanziPenTC-W3-B5pc-H, 'HanziPen TC';
        font-size: 22.41px;
      }
    </style>
    <clipPath id="d">
      <path class="g" d="M125.26,0H0V61.53c10.47,0,18.95,8.22,18.95,18.36S10.47,98.26,0,98.26v61.53l87.45,.18v.04h37.8v-.21H400v-61.53c-10.47,0-18.95-8.22-18.95-18.36s8.48-18.36,18.95-18.36V0H125.26Z"/>
    </clipPath>
    <clipPath id="e">
      <path class="g" d="M125.26,0H0V61.53c10.47,0,18.95,8.22,18.95,18.36S10.47,98.26,0,98.26v61.53l87.45,.18v.04h37.8v-.21H400v-61.53c-10.47,0-18.95-8.22-18.95-18.36s8.48-18.36,18.95-18.36V0H125.26Z"/>
    </clipPath>
  </defs>
  <g id="c" data-name="OBJECTS">
    <g>
      <g>
        <g>
          <rect class="i" x="64.48" width="31.07" height="160"/>
          <path class="p" d="M71.15,16c0-8,5.75-8,5.75-16H0V61.53c10.47,0,18.95,8.22,18.95,18.36S10.47,98.26,0,98.26v61.53l76.9,.21c0-8-5.75-8-5.75-16s5.75-8,5.75-16-5.75-8-5.75-16,5.75-8,5.75-16-5.75-8-5.75-16,5.75-8,5.75-16-5.75-8-5.75-16,5.75-8,5.75-16-5.75-8-5.75-16Z"/>
          <path class="r" d="M381.05,79.89c0-10.14,8.48-18.36,18.95-18.36V0H79.77c0,8-5.75,8-5.75,16s5.75,8,5.75,16-5.75,8-5.75,16,5.75,8,5.75,16-5.75,8-5.75,16,5.75,8,5.75,16-5.75,8-5.75,16,5.75,8,5.75,16-5.75,8-5.75,16,5.63,8.01,5.74,15.79H400v-61.53c-10.47,0-18.95-8.22-18.95-18.36Z"/>
          <path class="s" d="M400,159.79v-61.53c-10.47,0-18.95-8.22-18.95-18.36s8.48-18.36,18.95-18.36V28.75c-13.31,1.36-40.81,8.36-44.05,42.86-4.29,45.72-44.51,55.03-85.37,52.04-33.41-2.45-50.91,14.36-51.67,36.14h181.09Z"/>
          <path class="s" d="M74.02,16c0,8,5.75,8,5.75,16s-5.17,7.99-5.7,14.85c20.85-17.55,78.86-14.13,110.97-14.36,34.02-.24,39.58-22.48,40.36-32.48H79.77c0,8-5.75,8-5.75,16Z"/>
        </g>
        <path class="p" d="M312.41,94.63c0,7.51-6.95,13.65-15.44,13.65h-117.19c-8.49,0-15.44-6.14-15.44-13.65s6.95-13.65,15.44-13.65h117.19c8.49,0,15.44,6.14,15.44,13.65Z"/>
        <g class="z">
          <g>
            <g>
              <path class="m" d="M119.87,168.9l-.47-.09c4.4-22.67-4.88-32.99-4.97-33.09l.36-.31c.1,.1,9.53,10.59,5.08,33.49Z"/>
              <g>
                <g>
                  <path class="t" d="M118.68,139.35l-1.4,.41-1.4,.41c.16,2.83-1.92,5.39-1.92,5.39,2.84,.88,5.13-.03,5.13-.03,0,0,2.42-.48,4.28-2.74,0,0-3.2-1-4.69-3.44Z"/>
                  <path class="u" d="M113.68,146.08c1.71,.72,3.86,.52,5.59,.01,1.73-.51,3.63-1.5,4.64-3.02,.42-.63-.65-1.18-1.06-.55-.07,.11,.07-.09,.01-.01-.05,.07-.11,.14-.17,.2-.21,.25-.45,.48-.7,.69-.88,.74-1.96,1.25-3.07,1.58-1.11,.33-2.3,.48-3.45,.34-.33-.04-.66-.1-.98-.19-.09-.02-.17-.05-.25-.08-.1-.03,.15,.06,.02,0-.71-.3-1.28,.73-.57,1.03h0Z"/>
                </g>
                <g>
                  <path class="t" d="M131.83,103.52c3.97,12.69-7.41,35.1-14.27,37.12-6.47,1.9-29.18-10.48-33.15-23.17-3.97-12.69,3.42-26.1,16.52-29.96,13.1-3.85,26.94,3.31,30.91,16.01Z"/>
                  <path class="u" d="M110.32,86.57c4.83,3.04,8.59,7.62,10.37,13.3,4.1,13.1-3.89,27.05-17.85,31.15-2.09,.61-4.19,.97-6.28,1.09,7.89,5.86,17.22,9.63,21,8.52,6.86-2.02,18.25-24.43,14.27-37.12-3.02-9.65-11.75-16.1-21.51-16.95Z"/>
                  <path class="i" d="M97.74,96.89c-.92,2.19-1.62,4.03-2.17,5.83-.55,1.78-.97,3.46-1.2,5.18-.09,.42-.09,.87-.15,1.3-.03,.22-.08,.43-.1,.65,0,.22,0,.44-.02,.67l-.11,1.36c.01,.46,0,.93-.03,1.41,0,.24-.05,.48-.04,.73,0,.24,.02,.48,.02,.73,0,.5-.02,1.01-.04,1.53,0,1.04,.03,2.12-.15,3.34-.5-.35-.93-.74-1.36-1.15-.43-.41-.84-.84-1.19-1.3-.33-.47-.64-.96-.94-1.47-.31-.5-.58-1.02-.77-1.57-.21-.55-.4-1.11-.57-1.67-.17-.57-.21-1.17-.31-1.76-.21-1.18-.08-2.41,.04-3.61,.34-2.41,1.43-4.72,3-6.55,1.57-1.81,3.66-3.25,6.11-3.64Z"/>
                </g>
              </g>
            </g>
            <g>
              <path class="m" d="M337.54,183.82l-.4-.17c4.72-10.12,4.65-18.2,3.76-23.2-.96-5.42-3.07-8.48-3.09-8.51l.36-.24c.09,.12,8.5,12.54-.64,32.12Z"/>
              <g>
                <path class="l" d="M340.69,157.43l-1.3,.25-1.3,.25c-.12,2.57-2.25,4.69-2.25,4.69,2.48,1.04,4.63,.43,4.63,.43,0,0,2.23-.21,4.12-2.08,0,0-2.79-1.19-3.9-3.52Z"/>
                <g>
                  <path class="l" d="M355.97,126.29c2.37,11.8-10.03,30.98-16.41,32.19-6.01,1.14-25.31-12.06-27.68-23.86-2.37-11.8,5.57-23.23,17.75-25.53,12.18-2.3,23.97,5.4,26.34,17.2Z"/>
                  <path class="v" d="M338.19,109.08c4.06,3.17,7.02,7.64,8.08,12.92,2.45,12.18-6.09,24.04-19.07,26.49-1.94,.37-3.87,.5-5.76,.42,6.56,5.99,14.61,10.23,18.13,9.56,6.38-1.2,18.78-20.39,16.41-32.19-1.8-8.97-9.06-15.57-17.78-17.21Z"/>
                  <path class="i" d="M325.87,117.26c-1.03,1.89-1.85,3.49-2.52,5.06-.66,1.56-1.2,3.03-1.58,4.56-.12,.37-.16,.77-.26,1.16-.05,.19-.11,.38-.15,.58-.03,.2-.04,.4-.09,.6l-.23,1.21c-.03,.41-.09,.84-.16,1.26-.02,.21-.09,.43-.11,.65-.02,.22-.03,.44-.06,.66-.04,.45-.11,.91-.19,1.38-.1,.94-.18,1.91-.45,3-.41-.36-.77-.75-1.11-1.16-.35-.41-.68-.83-.95-1.28-.25-.46-.49-.93-.71-1.41-.23-.48-.43-.97-.54-1.49-.13-.51-.25-1.03-.35-1.56-.1-.53-.08-1.07-.11-1.61-.07-1.08,.16-2.18,.38-3.25,.54-2.14,1.74-4.12,3.33-5.64,1.59-1.49,3.61-2.6,5.86-2.73Z"/>
                </g>
              </g>
            </g>
            <g>
              <path class="m" d="M371.27,144.87c-23.22-9.25-22.93-32.96-22.92-33.2h.54c0,.25-.28,23.61,22.59,32.72l-.2,.48Z"/>
              <g>
                <g>
                  <path class="q" d="M351.32,120.51l-1.33,.38-1.33,.38c.13,2.68-1.86,5.09-1.86,5.09,2.69,.85,4.86,0,4.86,0,0,0,2.29-.44,4.07-2.56,0,0-3.03-.97-4.42-3.29Z"/>
                  <path class="p" d="M346.54,126.85c1.61,.7,3.65,.52,5.29,.05,1.64-.47,3.45-1.39,4.41-2.83,.4-.6-.6-1.12-1-.53-.07,.1,.07-.09,.01-.01-.05,.06-.1,.13-.16,.19-.2,.23-.43,.45-.67,.65-.84,.69-1.86,1.17-2.92,1.47-1.05,.3-2.18,.44-3.27,.3-.31-.04-.62-.1-.92-.19-.08-.02-.16-.05-.24-.08-.1-.03,.14,.06,.02,0-.67-.29-1.22,.68-.55,.97h0Z"/>
                </g>
                <g>
                  <path class="p" d="M364.03,86.67c3.67,12.04-7.27,33.19-13.78,35.05-6.14,1.76-27.55-10.12-31.23-22.16-3.67-12.04,3.43-24.69,15.86-28.25,12.43-3.56,25.48,3.32,29.15,15.37Z"/>
                  <path class="j" d="M343.79,70.47c4.55,2.91,8.08,7.28,9.72,12.67,3.79,12.43-3.88,25.58-17.13,29.38-1.98,.57-3.98,.89-5.95,.99,7.43,5.6,16.24,9.24,19.83,8.21,6.51-1.86,17.46-23.01,13.78-35.05-2.79-9.16-11.01-15.32-20.25-16.19Z"/>
                  <path class="i" d="M331.8,80.16c-.88,2.07-1.56,3.8-2.1,5.5-.53,1.69-.94,3.27-1.18,4.9-.09,.4-.09,.82-.15,1.23-.03,.21-.07,.41-.1,.62,0,.21,0,.42-.03,.63l-.11,1.28c0,.43-.01,.88-.04,1.33,0,.22-.05,.46-.04,.69,0,.23,.02,.46,0,.7,0,.47-.02,.95-.05,1.45-.01,.99,0,2-.16,3.16-.47-.33-.87-.71-1.28-1.1-.4-.39-.79-.8-1.12-1.24-.31-.45-.6-.92-.88-1.4-.29-.48-.55-.97-.71-1.5-.19-.52-.37-1.05-.53-1.59-.15-.54-.19-1.11-.28-1.67-.19-1.12-.06-2.28,.06-3.41,.34-2.28,1.39-4.46,2.88-6.18,1.5-1.71,3.49-3.05,5.81-3.41Z"/>
                </g>
              </g>
            </g>
            <g>
              <path class="m" d="M133.97,148l-.41-.21c5.64-10.39,6.09-18.93,5.48-24.26-.66-5.78-2.69-9.14-2.71-9.17l.4-.23c.08,.13,8.15,13.75-2.76,33.87Z"/>
              <g>
                <g>
                  <path class="l" d="M139.01,120.33l-1.39,.18-1.39,.18c-.3,2.7-2.68,4.81-2.68,4.81,2.55,1.25,4.86,.74,4.86,.74,0,0,2.36-.09,4.48-1.95,0,0-2.87-1.43-3.89-3.96Z"/>
                  <path class="v" d="M133.21,125.94c1.5,.94,3.57,1.07,5.28,.85,1.72-.22,3.67-.87,4.87-2.16,.5-.54-.42-1.22-.92-.68-.08,.09,.09-.08,.01-.01-.06,.06-.12,.11-.19,.17-.24,.2-.5,.38-.77,.54-.95,.57-2.05,.89-3.15,1.03-1.1,.14-2.25,.11-3.32-.19-.31-.09-.61-.2-.89-.33-.08-.04-.15-.07-.23-.11-.09-.05,.13,.08,.02,0-.62-.39-1.33,.5-.7,.89h0Z"/>
                </g>
                <g>
                  <path class="l" d="M157.16,88.4c1.74,12.6-12.61,32.1-19.42,32.98-6.42,.83-25.93-14.28-27.67-26.88-1.74-12.6,7.39-24.18,20.4-25.87,13-1.68,24.95,7.17,26.69,19.77Z"/>
                  <path class="v" d="M139.51,69.14c4.08,3.6,6.91,8.5,7.69,14.14,1.79,13.01-7.99,25-21.85,26.8-2.07,.27-4.12,.29-6.11,.09,6.54,6.72,14.76,11.69,18.51,11.2,6.81-.88,21.16-20.38,19.42-32.98-1.32-9.58-8.55-16.99-17.65-19.25Z"/>
                  <path class="i" d="M125.97,77.02c-1.22,1.94-2.18,3.57-2.98,5.19-.8,1.61-1.46,3.13-1.96,4.72-.16,.39-.22,.81-.35,1.21-.06,.2-.14,.4-.2,.6-.04,.21-.07,.42-.13,.63l-.32,1.27c-.06,.44-.15,.88-.26,1.32-.04,.22-.12,.45-.16,.68-.03,.23-.06,.46-.1,.7-.08,.47-.18,.95-.29,1.44-.17,.99-.31,2.01-.67,3.14-.41-.4-.76-.84-1.1-1.29-.34-.45-.66-.92-.92-1.41-.23-.5-.46-1.01-.65-1.53-.21-.52-.39-1.05-.47-1.6-.11-.55-.2-1.11-.27-1.67-.07-.56-.01-1.13-.01-1.71,0-1.15,.31-2.29,.61-3.41,.71-2.23,2.11-4.25,3.88-5.75,1.78-1.48,3.98-2.52,6.36-2.53Z"/>
                </g>
              </g>
            </g>
            <g>
              <path class="m" d="M132.97,177.33c-1.36-10.13,.72-17.4,2.71-21.72,2.16-4.69,4.61-6.95,4.71-7.04l.33,.34c-.1,.09-9.84,9.22-7.27,28.36l-.48,.06Z"/>
              <g>
                <g>
                  <path class="x" d="M138.69,152.66l-1.15-.42-1.15-.42c-1.39,1.98-4.14,2.65-4.14,2.65,1.44,2,3.45,2.53,3.45,2.53,0,0,1.87,.88,4.31,.3,0,0-1.61-2.26-1.32-4.64Z"/>
                  <path class="w" d="M131.78,154.68c.76,1.34,2.31,2.27,3.73,2.79,1.43,.52,3.22,.8,4.7,.28,.62-.22,.19-1.11-.42-.9-.1,.04,.1-.03,.02,0-.07,.02-.14,.04-.22,.05-.27,.06-.55,.1-.83,.11-.98,.05-1.97-.13-2.89-.47-.92-.33-1.79-.82-2.49-1.49-.2-.19-.39-.4-.55-.62-.04-.06-.09-.12-.13-.18-.05-.07,.07,.11,0,.01-.32-.55-1.24-.15-.93,.41h0Z"/>
                </g>
                <g>
                  <path class="x" d="M166.47,135.21c-4.06,10.47-23.55,19.81-29.21,17.76-5.34-1.94-13.99-21.52-9.93-32s16.11-15.78,26.92-11.84c10.81,3.93,16.28,15.61,12.22,26.09Z"/>
                  <path class="w" d="M161.04,113.17c1.62,4.44,1.71,9.37-.1,14.06-4.19,10.81-16.92,16.17-28.45,11.98-1.72-.63-3.32-1.44-4.78-2.39,2.18,7.85,6.43,15.01,9.55,16.15,5.66,2.06,25.15-7.28,29.21-17.76,3.09-7.96,.66-16.62-5.43-22.04Z"/>
                  <path class="i" d="M147.15,113.82c-1.77,1.01-3.22,1.89-4.54,2.82-1.31,.92-2.48,1.84-3.55,2.87-.29,.24-.52,.53-.79,.79-.14,.13-.28,.25-.41,.39-.12,.15-.24,.3-.37,.43l-.79,.85c-.24,.31-.5,.62-.77,.92-.13,.16-.29,.3-.41,.46-.12,.17-.24,.34-.38,.5-.26,.33-.54,.67-.84,1-.56,.7-1.1,1.43-1.87,2.16-.15-.48-.23-.96-.3-1.45-.07-.49-.12-.98-.11-1.46,.03-.48,.08-.96,.15-1.45,.06-.49,.15-.97,.32-1.44,.15-.47,.32-.94,.51-1.4,.19-.46,.48-.89,.72-1.33,.49-.89,1.22-1.65,1.93-2.4,1.51-1.45,3.46-2.45,5.47-2.9,2.01-.43,4.17-.35,6.02,.6Z"/>
                </g>
              </g>
            </g>
            <g>
              <path class="m" d="M390.17,166.97c-9.05-6.88-13.16-14.08-15.02-18.91-2.02-5.25-1.89-8.82-1.89-8.97l.52,.02c0,.14-.39,14.47,16.71,27.47l-.32,.4Z"/>
              <g>
                <g>
                  <path class="x" d="M375.17,143.53l-1.23,.53-1.23,.53c.48,2.57-1.13,5.13-1.13,5.13,2.7,.49,4.68-.59,4.68-.59,0,0,2.15-.7,3.59-2.97,0,0-3.04-.57-4.68-2.63Z"/>
                  <path class="w" d="M371.39,150.22c1.65,.48,3.58,.06,5.1-.6,1.52-.65,3.14-1.76,3.88-3.26,.31-.63-.73-1.01-1.04-.39-.05,.11,.06-.09,0-.01-.04,.07-.08,.14-.13,.2-.17,.25-.36,.48-.56,.7-.72,.77-1.64,1.36-2.62,1.77-.98,.42-2.04,.69-3.12,.69-.31,0-.61-.02-.92-.07-.08-.01-.16-.03-.24-.04-.1-.02,.14,.04,.02,0-.68-.2-1.09,.81-.4,1h0Z"/>
                </g>
                <g>
                  <path class="x" d="M383.03,109.37c5.1,11.16-2.7,32.87-8.73,35.46-5.69,2.44-27.87-6.39-32.97-17.55s.1-24.22,11.61-29.16c11.52-4.94,24.99,.09,30.09,11.25Z"/>
                  <path class="w" d="M361.41,96.23c4.76,2.25,8.73,6.03,11.01,11.02,5.27,11.52-.42,25.13-12.7,30.4-1.84,.79-3.72,1.34-5.61,1.68,7.89,4.49,16.85,6.92,20.17,5.49,6.03-2.59,13.84-24.3,8.73-35.46-3.88-8.49-12.6-13.43-21.62-13.14Z"/>
                  <path class="i" d="M351.12,107.03c-.58,2.1-1.01,3.86-1.31,5.56-.29,1.69-.48,3.26-.5,4.86-.04,.4,.02,.8,.01,1.2,0,.2-.02,.4-.01,.61,.02,.2,.05,.41,.06,.61l.06,1.25c.06,.42,.1,.85,.13,1.29,.03,.22,.01,.45,.05,.67,.04,.22,.08,.44,.1,.67,.06,.45,.1,.92,.14,1.41,.12,.95,.27,1.93,.25,3.07-.49-.26-.94-.58-1.37-.91-.44-.33-.87-.67-1.24-1.06-.35-.4-.7-.81-1.03-1.24-.34-.42-.65-.87-.88-1.35-.25-.48-.49-.97-.71-1.47-.22-.5-.33-1.04-.49-1.57-.33-1.06-.35-2.19-.38-3.3,.03-2.24,.76-4.46,1.98-6.31,1.23-1.83,2.96-3.36,5.16-3.99Z"/>
                </g>
              </g>
            </g>
          </g>
        </g>
      </g>
      <rect class="r" x="34.12" y="27.88" width="20.25" height="104.03"/>
      <g class="y">
        <g>
          <g>
            <g>
              <g>
                <polygon class="p" points="117.23 1.09 138.23 6.62 123.27 19.77 117.23 1.09"/>
                <polygon class="j" points="134.82 9.61 138.23 6.62 117.23 1.09 118.6 5.34 134.82 9.61"/>
              </g>
              <g>
                <polygon class="t" points="144.37 7.46 166.08 8.86 154.09 24.62 144.37 7.46"/>
                <polygon class="u" points="163.35 12.45 166.08 8.86 144.37 7.46 146.58 11.37 163.35 12.45"/>
              </g>
              <g>
                <polygon class="x" points="170.7 8.98 192.39 7.27 182.93 24.56 170.7 8.98"/>
                <polygon class="w" points="190.24 11.21 192.39 7.27 170.7 8.98 173.49 12.53 190.24 11.21"/>
              </g>
              <g>
                <polygon class="i" points="199.16 6.49 220.38 1.83 213.53 20.24 199.16 6.49"/>
                <polygon class="k" points="218.82 6.02 220.38 1.83 199.16 6.49 202.43 9.62 218.82 6.02"/>
              </g>
            </g>
            <path class="m" d="M107.59-2.7c1.9,1.04,3.92,1.86,5.91,2.66,5.49,2.19,11.13,3.87,16.83,5.21,8.87,2.09,17.9,3.34,26.95,3.88,12.04,.72,24.13,.18,36.09-1.42,15.02-2,29.84-5.65,44.3-10.63,2.02-.69,4.02-1.41,6.03-2.16,.63-.23,.36-1.35-.28-1.12-14.64,5.43-29.68,9.56-44.95,12-12.31,1.96-24.77,2.81-37.2,2.36-9.38-.34-18.74-1.43-27.96-3.41-6.08-1.31-12.12-3-17.99-5.22-1.69-.64-3.37-1.32-5.02-2.07-.71-.32-1.34-.73-2.11-1.02-.03-.01-.06-.03-.09-.05-.6-.33-1.12,.67-.52,1h0Z"/>
          </g>
          <g>
            <g>
              <g>
                <polygon class="p" points="360.99 1.09 339.98 6.62 354.95 19.77 360.99 1.09"/>
                <polygon class="j" points="343.39 9.61 339.98 6.62 360.99 1.09 359.61 5.34 343.39 9.61"/>
              </g>
              <g>
                <polygon class="t" points="333.84 7.46 312.13 8.86 324.12 24.62 333.84 7.46"/>
                <polygon class="u" points="314.86 12.45 312.13 8.86 333.84 7.46 331.63 11.37 314.86 12.45"/>
              </g>
              <g>
                <polygon class="x" points="307.51 8.98 285.82 7.27 295.28 24.56 307.51 8.98"/>
                <polygon class="w" points="287.98 11.21 285.82 7.27 307.51 8.98 304.73 12.53 287.98 11.21"/>
              </g>
              <g>
                <polygon class="i" points="279.06 6.49 257.83 1.83 264.68 20.24 279.06 6.49"/>
                <polygon class="k" points="259.39 6.02 257.83 1.83 279.06 6.49 275.78 9.62 259.39 6.02"/>
              </g>
            </g>
            <path class="m" d="M370.62-2.7c-1.9,1.04-3.92,1.86-5.91,2.66-5.49,2.19-11.13,3.87-16.83,5.21-8.87,2.09-17.9,3.34-26.95,3.88-12.04,.72-24.13,.18-36.09-1.42-15.02-2-29.84-5.65-44.3-10.63-2.02-.69-4.02-1.41-6.03-2.16-.63-.23-.36-1.35,.28-1.12,14.64,5.43,29.68,9.56,44.95,12,12.31,1.96,24.77,2.81,37.2,2.36,9.38-.34,18.74-1.43,27.96-3.41,6.08-1.31,12.12-3,17.99-5.22,1.69-.64,3.37-1.32,5.02-2.07,.71-.32,1.34-.73,2.11-1.02,.03-.01,.06-.03,.09-.05,.6-.33,1.12,.67,.52,1h0Z"/>
          </g>
        </g>
      </g>
      <g>
        <polygon class="t" points="105.04 16.94 98.53 14.05 99.61 11.77 106.12 14.66 105.04 16.94"/>
        <polygon class="x" points="126.51 38.32 120.31 41.79 119.01 39.61 125.22 36.14 126.51 38.32"/>
        <polygon class="p" points="98.66 36.83 94.58 42.53 92.45 41.1 96.53 35.4 98.66 36.83"/>
        <polygon class="i" points="157.91 65.99 151.39 68.87 150.32 66.58 156.84 63.7 157.91 65.99"/>
        <polygon class="t" points="105.27 68.57 98.76 65.67 99.84 63.39 106.35 66.29 105.27 68.57"/>
        <polygon class="p" points="177.43 24.09 173.35 29.79 171.22 28.36 175.3 22.66 177.43 24.09"/>
        <polygon class="p" points="182.22 117.04 178.14 122.75 176.01 121.32 180.09 115.61 182.22 117.04"/>
        <polygon class="x" points="178.08 147.62 171.87 151.1 170.58 148.92 176.78 145.45 178.08 147.62"/>
        <polygon class="t" points="216.89 150.86 210.38 147.97 211.46 145.68 217.97 148.58 216.89 150.86"/>
        <polygon class="x" points="326.68 66.16 320.47 69.63 319.18 67.45 325.38 63.98 326.68 66.16"/>
        <polygon class="i" points="250.76 143.4 244.24 146.28 243.17 143.99 249.69 141.12 250.76 143.4"/>
        <polygon class="x" points="214.18 24.99 207.97 28.46 206.68 26.29 212.88 22.82 214.18 24.99"/>
        <polygon class="t" points="245.26 16.94 238.75 14.05 239.83 11.77 246.34 14.66 245.26 16.94"/>
        <polygon class="t" points="352.73 41.55 346.22 38.66 347.3 36.38 353.81 39.27 352.73 41.55"/>
        <polygon class="p" points="383.8 15.79 379.72 21.49 377.59 20.06 381.67 14.35 383.8 15.79"/>
        <polygon class="i" points="292.08 25.93 285.56 28.81 284.49 26.52 291.01 23.64 292.08 25.93"/>
        <polygon class="i" points="386.43 127.75 379.91 130.62 378.84 128.34 385.36 125.46 386.43 127.75"/>
        <polygon class="t" points="304.12 121.77 297.61 118.87 298.69 116.59 305.2 119.49 304.12 121.77"/>
        <polygon class="p" points="301.19 142.27 297.11 147.97 294.98 146.54 299.06 140.84 301.19 142.27"/>
        <polygon class="i" points="377.43 54.01 370.91 56.89 369.83 54.61 376.35 51.73 377.43 54.01"/>
        <polygon class="i" points="110.15 134.18 103.63 137.06 102.56 134.77 109.08 131.89 110.15 134.18"/>
        <polygon class="x" points="140.11 92.62 133.91 96.1 132.61 93.92 138.81 90.45 140.11 92.62"/>
        <polygon class="t" points="356.53 86.66 350.02 83.76 351.1 81.48 357.61 84.38 356.53 86.66"/>
      </g>
    </g>
  </g>
  <g id="f" data-name="TEXTS">
    <g>
      <text class="o" transform="translate(189.15 50.74)"><tspan x="0" y="0">前方宝藏!</tspan></text>
      <text class="n" transform="translate(209.78 71.98)"><tspan x="0" y="0">惊喜袭来~</tspan></text>
    </g>
    <text class="h" transform="translate(196.52 101.37)"><tspan x="0" y="0">尝鲜钜惠</tspan></text>
  </g>
</svg>