<?xml version="1.0" encoding="UTF-8"?>
<svg id="b" data-name="Layer 2" xmlns="http://www.w3.org/2000/svg" width="400" height="160" xmlns:xlink="http://www.w3.org/1999/xlink" viewBox="0 0 400 160">
  <defs>
    <style>
      .l {
        fill: url(#h);
      }

      .m {
        fill: url(#k);
      }

      .n, .o, .p {
        fill: none;
      }

      .o, .p {
        stroke: #fff;
        stroke-linecap: round;
        stroke-miterlimit: 10;
        stroke-width: 1.08px;
      }

      .p {
        stroke-dasharray: 0 0 9.87 9.87;
      }

      .q, .r, .s, .t {
        fill: #fff;
      }

      .u {
        fill: url(#d);
        filter: url(#e);
      }

      .v {
        clip-path: url(#g);
      }

      .r {
        font-family: DFWaWaSC-W5-GBpc-EUC-H, 'Wawati SC';
        font-size: 26.18px;
        letter-spacing: .1em;
      }

      .w {
        fill: url(#j);
      }

      .w, .x {
        opacity: .8;
      }

      .x {
        fill: url(#i);
      }

      .s {
        opacity: .75;
      }

      .t {
        opacity: .3;
      }
    </style>
    <linearGradient id="d" x1="-87.19" y1="80" x2="467.99" y2="80" gradientUnits="userSpaceOnUse">
      <stop offset="0" stop-color="#9812f5"/>
      <stop offset=".1" stop-color="#a426d6"/>
      <stop offset=".29" stop-color="#b847a5"/>
      <stop offset=".47" stop-color="#c8617e"/>
      <stop offset=".63" stop-color="#d47462"/>
      <stop offset=".77" stop-color="#db7f51"/>
      <stop offset=".87" stop-color="#de844c"/>
    </linearGradient>
    <filter id="e" data-name="drop-shadow-1" filterUnits="userSpaceOnUse">
      <feOffset dx="7.58" dy="7.58"/>
      <feGaussianBlur result="f" stdDeviation="3.25"/>
      <feFlood flood-color="#1e1858" flood-opacity=".3"/>
      <feComposite in2="f" operator="in"/>
      <feComposite in="SourceGraphic"/>
    </filter>
    <clipPath id="g">
      <path class="n" d="M397.26,99.59c-10.77,0-19.49-8.77-19.49-19.59s8.73-19.59,19.49-19.59c.59,0,1.17,.04,1.75,.09V14.85c0-8.2-6.62-14.85-14.78-14.85H14.78C6.62,0,0,6.65,0,14.85V60.43c10.57,.23,19.08,8.89,19.08,19.57S10.57,99.34,0,99.57v45.58c0,8.2,6.62,14.85,14.78,14.85H384.22c8.16,0,14.78-6.65,14.78-14.85v-45.65c-.58,.05-1.16,.09-1.75,.09Z"/>
    </clipPath>
    <linearGradient id="h" x1="32.21" y1="-1.78" x2="455.86" y2="194.95" xlink:href="#d"/>
    <linearGradient id="i" x1="247.78" y1="144.62" x2="452.34" y2="144.62" gradientUnits="userSpaceOnUse">
      <stop offset="0" stop-color="#9812f5"/>
      <stop offset=".29" stop-color="#af38bc"/>
      <stop offset=".62" stop-color="#c8607f"/>
      <stop offset=".87" stop-color="#d87a5a"/>
      <stop offset="1" stop-color="#de844c"/>
    </linearGradient>
    <linearGradient id="j" x1="52.29" y1="11.24" x2="318.75" y2="11.24" xlink:href="#i"/>
    <linearGradient id="k" x1="349.81" y1="30.54" x2="145.28" y2="103.37" gradientUnits="userSpaceOnUse">
      <stop offset="0" stop-color="#c262a9"/>
      <stop offset=".17" stop-color="#a2539d"/>
      <stop offset=".43" stop-color="#78408c"/>
      <stop offset=".66" stop-color="#593180"/>
      <stop offset=".86" stop-color="#462979"/>
      <stop offset="1" stop-color="#402677"/>
    </linearGradient>
  </defs>
  <g id="c" data-name="OBJECTS">
    <g>
      <path class="u" d="M398.25,99.59c-10.77,0-19.49-8.77-19.49-19.59s8.73-19.59,19.49-19.59c.59,0,1.17,.04,1.75,.09V14.85c0-8.2-6.62-14.85-14.78-14.85H15.78C7.62,0,1,6.65,1,14.85V60.43c10.57,.23,19.08,8.89,19.08,19.57S11.57,99.34,1,99.57v45.58c0,8.2,6.62,14.85,14.78,14.85H385.22c8.16,0,14.78-6.65,14.78-14.85v-45.65c-.58,.05-1.16,.09-1.75,.09Z"/>
      <g class="v">
        <g>
          <g>
            <rect class="s" x="38.97" y="27.85" width="27.83" height="2.94"/>
            <rect class="s" x="38.97" y="33.72" width="27.83" height=".74"/>
            <rect class="s" x="38.97" y="37.23" width="27.83" height="1.47"/>
            <rect class="s" x="38.97" y="41" width="27.83" height="2.11"/>
            <rect class="s" x="38.97" y="45.77" width="27.83" height=".74"/>
            <rect class="s" x="38.97" y="48.71" width="27.83" height="1.47"/>
            <rect class="s" x="38.97" y="51.62" width="27.83" height=".37"/>
            <rect class="s" x="38.97" y="54.77" width="27.83" height=".74"/>
            <rect class="s" x="38.97" y="57.25" width="27.83" height="1.47"/>
            <rect class="s" x="38.97" y="61.49" width="27.83" height="2.94"/>
            <rect class="s" x="38.97" y="67.36" width="27.83" height=".74"/>
            <rect class="s" x="38.97" y="70.87" width="27.83" height="1.47"/>
            <rect class="s" x="38.97" y="74.64" width="27.83" height="2.11"/>
            <rect class="s" x="38.97" y="79.41" width="27.83" height=".74"/>
            <rect class="s" x="38.97" y="82.35" width="27.83" height="1.47"/>
            <rect class="s" x="38.97" y="85.26" width="27.83" height=".37"/>
            <rect class="s" x="38.97" y="88.41" width="27.83" height=".74"/>
            <rect class="s" x="38.97" y="90.89" width="27.83" height="1.47"/>
            <rect class="s" x="38.97" y="94.01" width="27.83" height="2.94"/>
            <rect class="s" x="38.97" y="99.88" width="27.83" height=".74"/>
            <rect class="s" x="38.97" y="103.39" width="27.83" height="1.47"/>
            <rect class="s" x="38.97" y="107.15" width="27.83" height="2.11"/>
            <rect class="s" x="38.97" y="111.93" width="27.83" height=".74"/>
            <rect class="s" x="38.97" y="114.87" width="27.83" height="1.47"/>
            <rect class="s" x="38.97" y="117.77" width="27.83" height=".37"/>
            <rect class="s" x="38.97" y="120.93" width="27.83" height=".74"/>
            <rect class="s" x="38.97" y="123.4" width="27.83" height="1.47"/>
            <rect class="s" x="38.97" y="126.67" width="27.83" height=".74"/>
            <rect class="s" x="38.97" y="129.62" width="27.83" height="1.47"/>
            <rect class="s" x="38.97" y="132.52" width="27.83" height=".37"/>
            <rect class="s" x="38.97" y="135.68" width="27.83" height=".74"/>
          </g>
          <g>
            <path class="l" d="M400,145.15v-45.65c-.58,.05-1.16,.09-1.75,.09-10.77,0-19.49-8.77-19.49-19.59s8.73-19.59,19.49-19.59c.59,0,1.17,.04,1.75,.09V22.13c-13.7-5.49-69.43-20.62-144.47,55.91-84.29,85.97-154.42,25.86-191.25,81.96H385.22c8.16,0,14.78-6.65,14.78-14.85Z"/>
            <path class="x" d="M395.67,82.6s-45.33-10.35-39.15,28.98c6.18,39.34-91.69-12.42-107.15,25.88-15.45,38.3,86.54,70.39,86.54,70.39l116.42-41.41-56.66-83.85Z"/>
            <path class="w" d="M227.34-38.91s65.31,4.54,49.23,42.48c-16.09,37.94-65.32-13.88-127.06,41.44C87.76,100.32,77.23-2.16,77.23-2.16L227.34-38.91Z"/>
          </g>
          <g>
            <path class="t" d="M90.47,129.16c14.37-2.8,28.75-5.59,43.12-8.39,2.03-.39,4.06-.79,6.09-1.18,3.08-.6,1.77-5.32-1.3-4.72-14.37,2.8-28.75,5.59-43.12,8.39-2.03,.39-4.06,.79-6.09,1.18-3.08,.6-1.77,5.32,1.3,4.72Z"/>
            <path class="t" d="M410.96,18.34c-10.31,2-20.61,4.01-30.92,6.01-16.45,3.2-32.89,6.4-49.34,9.59-3.8,.74-7.6,1.48-11.4,2.22-1.03,.2-.59,1.77,.43,1.57,10.31-2,20.61-4.01,30.92-6.01,16.45-3.2,32.89-6.4,49.34-9.59,3.8-.74,7.6-1.48,11.4-2.22,1.03-.2,.59-1.77-.43-1.57Z"/>
            <path class="t" d="M140.94,22.29c4.54-.88,9.08-1.77,13.62-2.65,10.85-2.11,21.69-4.22,32.54-6.33,13.17-2.56,26.34-5.12,39.51-7.68,11.35-2.21,22.69-4.41,34.04-6.62,3.77-.73,7.54-1.47,11.31-2.2,1.76-.34,3.59-.58,5.32-1.04,.08-.02,.16-.03,.24-.05,3.08-.6,1.77-5.32-1.3-4.72-4.54,.88-9.08,1.77-13.62,2.65C251.76-4.23,240.92-2.12,230.07-.01c-13.17,2.56-26.34,5.12-39.51,7.68-11.35,2.21-22.69,4.41-34.04,6.62-3.77,.73-7.54,1.47-11.31,2.2-1.76,.34-3.59,.58-5.32,1.04-.08,.02-.16,.03-.24,.05-3.08,.6-1.77,5.32,1.3,4.72Z"/>
            <path class="t" d="M305.35,84.29c14.37-2.8,28.75-5.59,43.12-8.39,2.03-.39,4.06-.79,6.09-1.18,3.08-.6,1.77-5.32-1.3-4.72-14.37,2.8-28.75,5.59-43.12,8.39-2.03,.39-4.06,.79-6.09,1.18-3.08,.6-1.77,5.32,1.3,4.72Z"/>
            <path class="t" d="M307.08,145.81c-10.31,2-20.61,4.01-30.92,6.01-16.45,3.2-32.89,6.4-49.34,9.59-3.8,.74-7.6,1.48-11.4,2.22-1.03,.2-.59,1.77,.43,1.57,10.31-2,20.61-4.01,30.92-6.01,16.45-3.2,32.89-6.4,49.34-9.59,3.8-.74,7.6-1.48,11.4-2.22,1.03-.2,.59-1.77-.43-1.57Z"/>
          </g>
          <g>
            <path class="q" d="M157.51,100.81l-8.83-46.94,195.54-6.38-11.03,52.26-175.68,1.06Zm-7.82-46.15l8.53,45.32,174.28-1.05,10.67-50.58-193.48,6.32Z"/>
            <polygon class="m" points="327.19 93.83 152.22 94.88 143.53 48.75 338.04 42.4 327.19 93.83"/>
          </g>
          <g>
            <path class="o" d="M333.86,21.63c0,1.94-1.56,3.5-3.49,3.5s-3.49-1.57-3.49-3.5,1.56-3.5,3.49-3.5,3.49,1.57,3.49,3.5Z"/>
            <path class="o" d="M136.32,59.11c0,1.04-.84,1.89-1.88,1.89s-1.88-.84-1.88-1.89,.84-1.89,1.88-1.89,1.88,.84,1.88,1.89Z"/>
            <path class="o" d="M160.26,135.55c0,2.23-1.8,4.04-4.02,4.04s-4.02-1.81-4.02-4.04,1.8-4.04,4.02-4.04,4.02,1.81,4.02,4.04Z"/>
            <path class="o" d="M356.9,128.4c0,2.11-1.71,3.83-3.81,3.83s-3.81-1.71-3.81-3.83,1.71-3.83,3.81-3.83,3.81,1.71,3.81,3.83Z"/>
            <ellipse class="o" cx="176.22" cy=".75" rx="3.16" ry="3.18"/>
            <path class="o" d="M290.8,152.04c0,1.23-.99,2.22-2.21,2.22s-2.21-.99-2.21-2.22,.99-2.22,2.21-2.22,2.21,.99,2.21,2.22Z"/>
          </g>
          <g>
            <line class="o" x1="93.18" y1=".98" x2="93.18" y2="6.25"/>
            <line class="p" x1="93.18" y1="16.12" x2="93.18" y2="149.35"/>
            <line class="o" x1="93.18" y1="154.29" x2="93.18" y2="159.56"/>
          </g>
        </g>
      </g>
      <text class="r" transform="translate(194.08 77.06)"><tspan x="0" y="0">复购折扣</tspan></text>
    </g>
  </g>
</svg>