<?xml version="1.0" encoding="UTF-8"?>
<svg id="Layer_2" data-name="Layer 2" xmlns="http://www.w3.org/2000/svg" xmlns:xlink="http://www.w3.org/1999/xlink" viewBox="0 0 2560 1440">
  <defs>
    <style>
      .cls-1, .cls-2, .cls-3, .cls-4, .cls-5, .cls-6 {
        fill: none;
      }

      .cls-7 {
        clip-path: url(#clippath);
      }

      .cls-8 {
        fill: #361c5e;
      }

      .cls-2, .cls-3, .cls-5, .cls-6 {
        stroke-linecap: round;
      }

      .cls-2, .cls-3, .cls-6 {
        stroke: #fff;
        stroke-miterlimit: 10;
      }

      .cls-9 {
        fill: url(#Degradado_sin_nombre_7-3);
      }

      .cls-10 {
        fill: url(#Degradado_sin_nombre_7-2);
      }

      .cls-11 {
        fill: url(#Degradado_sin_nombre_35);
      }

      .cls-12 {
        fill: url(#Degradado_sin_nombre_33);
      }

      .cls-13 {
        fill: url(#Degradado_sin_nombre_11);
      }

      .cls-3 {
        stroke-dasharray: 0 0 0 9.11;
        stroke-width: 4.55px;
      }

      .cls-14 {
        font-size: 116.99px;
      }

      .cls-14, .cls-15 {
        fill: #fff;
      }

      .cls-14, .cls-16 {
        font-family: KozGoPr6N-Regular-83pv-RKSJ-H, 'Kozuka Gothic Pr6N';
      }

      .cls-4 {
        stroke: #222221;
        stroke-width: .3px;
      }

      .cls-17 {
        fill: url(#Degradado_sin_nombre_7);
      }

      .cls-15 {
        font-family: STSongti-SC-Light, 'Songti SC';
        font-size: 34.54px;
        font-weight: 300;
        letter-spacing: .2em;
      }

      .cls-5 {
        stroke: #5389d2;
        stroke-linejoin: round;
        stroke-width: 3.55px;
      }

      .cls-18 {
        fill: url(#Degradado_sin_nombre_11-2);
      }

      .cls-19 {
        fill: url(#Degradado_sin_nombre_35-3);
      }

      .cls-20 {
        fill: url(#Degradado_sin_nombre_35-2);
      }

      .cls-21 {
        fill: url(#Degradado_sin_nombre_33-2);
      }

      .cls-22 {
        fill: url(#Degradado_sin_nombre_33-3);
      }

      .cls-6 {
        stroke-dasharray: 0 0 0 13.03;
        stroke-width: 6.52px;
      }

      .cls-23 {
        fill: url(#Cruces);
      }

      .cls-16 {
        fill: #729eda;
        font-size: 36px;
        letter-spacing: .01em;
      }
    </style>
    <linearGradient id="Degradado_sin_nombre_7" data-name="Degradado sin nombre 7" x1="1280" y1="1440" x2="1280" y2="0" gradientUnits="userSpaceOnUse">
      <stop offset="0" stop-color="#4b2bcf"/>
      <stop offset="1" stop-color="#ff43ff"/>
    </linearGradient>
    <pattern id="Cruces" x="0" y="0" width="57.6" height="57.6" patternTransform="translate(560 -560)" patternUnits="userSpaceOnUse" viewBox="0 0 57.6 57.6">
      <g>
        <rect class="cls-1" width="57.6" height="57.6"/>
        <line class="cls-4" x1="52.5" y1="3.6" x2="55.5" y2="3.6"/>
        <line class="cls-4" x1="38.1" y1="3.6" x2="41.1" y2="3.6"/>
        <line class="cls-4" x1="23.7" y1="3.6" x2="26.7" y2="3.6"/>
        <line class="cls-4" x1="9.3" y1="3.6" x2="12.3" y2="3.6"/>
        <line class="cls-4" x1="45.3" y1="10.8" x2="48.3" y2="10.8"/>
        <line class="cls-4" x1="30.9" y1="10.8" x2="33.9" y2="10.8"/>
        <line class="cls-4" x1="16.5" y1="10.8" x2="19.5" y2="10.8"/>
        <line class="cls-4" x1="2.1" y1="10.8" x2="5.1" y2="10.8"/>
        <line class="cls-4" x1="52.5" y1="18" x2="55.5" y2="18"/>
        <line class="cls-4" x1="38.1" y1="18" x2="41.1" y2="18"/>
        <line class="cls-4" x1="23.7" y1="18" x2="26.7" y2="18"/>
        <line class="cls-4" x1="9.3" y1="18" x2="12.3" y2="18"/>
        <line class="cls-4" x1="45.3" y1="25.2" x2="48.3" y2="25.2"/>
        <line class="cls-4" x1="30.9" y1="25.2" x2="33.9" y2="25.2"/>
        <line class="cls-4" x1="16.5" y1="25.2" x2="19.5" y2="25.2"/>
        <line class="cls-4" x1="2.1" y1="25.2" x2="5.1" y2="25.2"/>
        <line class="cls-4" x1="52.5" y1="32.4" x2="55.5" y2="32.4"/>
        <line class="cls-4" x1="38.1" y1="32.4" x2="41.1" y2="32.4"/>
        <line class="cls-4" x1="23.7" y1="32.4" x2="26.7" y2="32.4"/>
        <line class="cls-4" x1="9.3" y1="32.4" x2="12.3" y2="32.4"/>
        <line class="cls-4" x1="45.3" y1="39.6" x2="48.3" y2="39.6"/>
        <line class="cls-4" x1="30.9" y1="39.6" x2="33.9" y2="39.6"/>
        <line class="cls-4" x1="16.5" y1="39.6" x2="19.5" y2="39.6"/>
        <line class="cls-4" x1="2.1" y1="39.6" x2="5.1" y2="39.6"/>
        <line class="cls-4" x1="52.5" y1="46.8" x2="55.5" y2="46.8"/>
        <line class="cls-4" x1="38.1" y1="46.8" x2="41.1" y2="46.8"/>
        <line class="cls-4" x1="23.7" y1="46.8" x2="26.7" y2="46.8"/>
        <line class="cls-4" x1="9.3" y1="46.8" x2="12.3" y2="46.8"/>
        <line class="cls-4" x1="45.3" y1="54" x2="48.3" y2="54"/>
        <line class="cls-4" x1="30.9" y1="54" x2="33.9" y2="54"/>
        <line class="cls-4" x1="16.5" y1="54" x2="19.5" y2="54"/>
        <line class="cls-4" x1="2.1" y1="54" x2="5.1" y2="54"/>
        <line class="cls-4" x1="54" y1="2.1" x2="54" y2="5.1"/>
        <line class="cls-4" x1="39.6" y1="2.1" x2="39.6" y2="5.1"/>
        <line class="cls-4" x1="25.2" y1="2.1" x2="25.2" y2="5.1"/>
        <line class="cls-4" x1="10.8" y1="2.1" x2="10.8" y2="5.1"/>
        <line class="cls-4" x1="46.8" y1="9.3" x2="46.8" y2="12.3"/>
        <line class="cls-4" x1="32.4" y1="9.3" x2="32.4" y2="12.3"/>
        <line class="cls-4" x1="18" y1="9.3" x2="18" y2="12.3"/>
        <line class="cls-4" x1="3.6" y1="9.3" x2="3.6" y2="12.3"/>
        <line class="cls-4" x1="54" y1="16.5" x2="54" y2="19.5"/>
        <line class="cls-4" x1="39.6" y1="16.5" x2="39.6" y2="19.5"/>
        <line class="cls-4" x1="25.2" y1="16.5" x2="25.2" y2="19.5"/>
        <line class="cls-4" x1="10.8" y1="16.5" x2="10.8" y2="19.5"/>
        <line class="cls-4" x1="46.8" y1="23.7" x2="46.8" y2="26.7"/>
        <line class="cls-4" x1="32.4" y1="23.7" x2="32.4" y2="26.7"/>
        <line class="cls-4" x1="18" y1="23.7" x2="18" y2="26.7"/>
        <line class="cls-4" x1="3.6" y1="23.7" x2="3.6" y2="26.7"/>
        <line class="cls-4" x1="54" y1="30.9" x2="54" y2="33.9"/>
        <line class="cls-4" x1="39.6" y1="30.9" x2="39.6" y2="33.9"/>
        <line class="cls-4" x1="25.2" y1="30.9" x2="25.2" y2="33.9"/>
        <line class="cls-4" x1="10.8" y1="30.9" x2="10.8" y2="33.9"/>
        <line class="cls-4" x1="46.8" y1="38.1" x2="46.8" y2="41.1"/>
        <line class="cls-4" x1="32.4" y1="38.1" x2="32.4" y2="41.1"/>
        <line class="cls-4" x1="18" y1="38.1" x2="18" y2="41.1"/>
        <line class="cls-4" x1="3.6" y1="38.1" x2="3.6" y2="41.1"/>
        <line class="cls-4" x1="54" y1="45.3" x2="54" y2="48.3"/>
        <line class="cls-4" x1="39.6" y1="45.3" x2="39.6" y2="48.3"/>
        <line class="cls-4" x1="25.2" y1="45.3" x2="25.2" y2="48.3"/>
        <line class="cls-4" x1="10.8" y1="45.3" x2="10.8" y2="48.3"/>
        <line class="cls-4" x1="46.8" y1="52.5" x2="46.8" y2="55.5"/>
        <line class="cls-4" x1="32.4" y1="52.5" x2="32.4" y2="55.5"/>
        <line class="cls-4" x1="18" y1="52.5" x2="18" y2="55.5"/>
        <line class="cls-4" x1="3.6" y1="52.5" x2="3.6" y2="55.5"/>
      </g>
    </pattern>
    <clipPath id="clippath">
      <rect class="cls-23" width="2560" height="1440"/>
    </clipPath>
    <linearGradient id="Degradado_sin_nombre_7-2" data-name="Degradado sin nombre 7" x1="85.59" y1="1125.67" x2="1639.22" y2="1125.67" xlink:href="#Degradado_sin_nombre_7"/>
    <linearGradient id="Degradado_sin_nombre_11" data-name="Degradado sin nombre 11" x1="-83.9" y1="242.14" x2="382.43" y2="242.14" gradientUnits="userSpaceOnUse">
      <stop offset="0" stop-color="#ff43ff"/>
      <stop offset="1" stop-color="#4b2bcf"/>
    </linearGradient>
    <linearGradient id="Degradado_sin_nombre_7-3" data-name="Degradado sin nombre 7" x1="2148.83" y1="480.9" x2="2638.95" y2="480.9" xlink:href="#Degradado_sin_nombre_7"/>
    <linearGradient id="Degradado_sin_nombre_11-2" data-name="Degradado sin nombre 11" x1="1563.27" y1="568.76" x2="1563.27" y2="124.78" xlink:href="#Degradado_sin_nombre_11"/>
    <linearGradient id="Degradado_sin_nombre_33" data-name="Degradado sin nombre 33" x1="2065.85" y1="333.37" x2="2404.02" y2="333.37" gradientTransform="translate(2838.91 2590.01) rotate(-113.86)" gradientUnits="userSpaceOnUse">
      <stop offset="0" stop-color="#f53bbe"/>
      <stop offset="1" stop-color="#f685f9"/>
    </linearGradient>
    <linearGradient id="Degradado_sin_nombre_33-2" data-name="Degradado sin nombre 33" x1="111.25" y1="897.42" x2="682.76" y2="897.42" gradientTransform="matrix(1, 0, 0, 1, 0, 0)" xlink:href="#Degradado_sin_nombre_33"/>
    <linearGradient id="Degradado_sin_nombre_35" data-name="Degradado sin nombre 35" x1="1650.79" y1="1058.97" x2="2247.04" y2="1058.97" gradientTransform="translate(-252.34 858.53) rotate(-24.14)" gradientUnits="userSpaceOnUse">
      <stop offset="0" stop-color="#2e2bcf"/>
      <stop offset="1" stop-color="#8433de"/>
    </linearGradient>
    <linearGradient id="Degradado_sin_nombre_35-2" data-name="Degradado sin nombre 35" x1="290.47" y1="186.6" x2="1052.66" y2="186.6" gradientTransform="translate(-40.96 316.98) rotate(-25.42)" xlink:href="#Degradado_sin_nombre_35"/>
    <linearGradient id="Degradado_sin_nombre_35-3" data-name="Degradado sin nombre 35" x1="724.15" y1="560.88" x2="801.43" y2="427.03" gradientTransform="matrix(1, 0, 0, 1, 0, 0)" xlink:href="#Degradado_sin_nombre_35"/>
    <linearGradient id="Degradado_sin_nombre_33-3" data-name="Degradado sin nombre 33" x1="2243.72" y1="939.99" x2="2309.05" y2="826.84" gradientTransform="translate(4029.28 2619.71) rotate(-157.1)" xlink:href="#Degradado_sin_nombre_33"/>
  </defs>
  <g id="BACKGROUND">
    <rect class="cls-17" width="2560" height="1440"/>
  </g>
  <g id="OBJECTS">
    <g>
      <rect class="cls-23" width="2560" height="1440"/>
      <g class="cls-7">
        <path class="cls-10" d="M85.59,1197.87c299-7.74,564.76-219.23,863.82-224.32,130.22-2.22,260.83,36.56,368.74,109.48,104.82,70.83,195.95,176.1,321.07,194.84H88.42l-2.83-80Z"/>
        <path class="cls-13" d="M279.84-82.35C348.39,2.42,385.41,112.11,382.24,221.08c-1.08,37.15-6.71,74.33-18.9,109.45-29.83,85.95-98.73,155.63-180.73,195.06-81.99,39.42-175.52,41.04-266.51,41.04V-60.42l363.74-21.93Z"/>
        <path class="cls-9" d="M2257.21,371.96c8.7,48.49-.69,98.43,3.17,147.54,6.77,86.15,56.99,167.78,130.84,212.65,73.85,44.87,168.16,49.04,247.74,15.36V216.45c-40.24-5.51-171.48-23.99-225.02-23.99-87.97,0-177.53,4.24-265.05-.42-1.35,44.11,26.97,47.27,54.69,76.06,27.39,28.45,46.66,64.91,53.65,103.86Z"/>
        <path class="cls-18" d="M680.24,124.78c108.64,8.83,214.06,53.54,295.92,125.5,64.05,56.31,113.29,127.97,177.99,183.53,141.38,121.41,342.79,152.23,527.38,126.58,116.41-16.18,233.9-55.05,319.03-136.09,28.71-27.32,53.12-58.84,81.18-86.82,98.22-97.93,233.57-147.21,364.57-192.81l-1766.06-19.88Z"/>
        <circle class="cls-3" cx="1847.18" cy="819.92" r="52.69" transform="translate(-38.75 1546.3) rotate(-45)"/>
        <circle class="cls-3" cx="692.22" cy="523.73" r="52.69" transform="translate(-167.59 642.87) rotate(-45)"/>
        <circle class="cls-3" cx="2007.75" cy="409.74" r="52.69" transform="translate(1147.68 2269.64) rotate(-76.72)"/>
        <circle class="cls-3" cx="149.27" cy="691.57" r="52.69" transform="translate(-558.1 677.95) rotate(-76.72)"/>
        <circle class="cls-6" cx="1451.29" cy="297.99" r="280.81"/>
        <circle class="cls-6" cx="722.73" cy="1113.29" r="280.81"/>
        <circle class="cls-6" cx="2524.07" cy="996.06" r="280.81"/>
        <circle class="cls-6" cx="27.56" cy="242.93" r="280.81"/>
        <g>
          <text class="cls-15" transform="translate(1134.15 758.74)"><tspan x="0" y="0">寻找那只独角兽</tspan></text>
          <text class="cls-14" transform="translate(987.52 697.01)"><tspan x="0" y="0">新世界船票</tspan></text>
        </g>
        <path class="cls-8" d="M-66.03,65.13c-.76,28.9,83.93,68.43,106,82.23,145.79,91.17,320.92,126.87,491.38,112.35,173.91-14.82,342.35-122.16,518.01-99.7,133.39,17.06,253.81,84.72,371.15,145.94,167.55,87.41,341.87,141.61,533.3,122.18,105.4-10.7,208.06-39.99,305.41-81.21,70.22-29.73,138.33-66.92,213.11-84.27,18.64-4.32,183.69-30.11,183.69-1.87V-147.97H-59.33s-6.7,213.07-6.7,213.11Z"/>
        <path class="cls-8" d="M-59.19,963.54c-1.13-68.73,270.47,10.37,297.94,22.91,96,43.82,175.18,112.69,268.95,159.42,91.26,45.48,188.91,77.93,289.05,97.01,200.25,38.16,411.21,22.97,602.41-48.63,101.76-38.11,190.03-100.44,299.63-117.97,164.75-26.35,311.43,24.44,466.29,72.96,168.81,52.89,362.71,106.57,522.77,31.25v414.31H-48.07s-11.11-631.21-11.11-631.27Z"/>
        <path class="cls-12" d="M2224.95,590.83c7.37-.64,14.68-1.68,21.89-3.11,143.95-28.4,254.19-222.15,115.62-329.68-90.5-70.23-220.16-7.52-270.76,82.46-35.6,63.31-51.13,162.85,10.38,215.38,33.3,28.43,78.95,38.77,122.88,34.94Z"/>
        <path class="cls-21" d="M528.84,1224.65c68.71-20.26,127.84-64.01,148.2-134.86,25.27-87.93-38.71-153.91-85.06-220.33-66.27-94.97-46.74-257.69-174.29-299.83-61.72-20.39-144.67-19.61-195.35,24.97-94.68,83.28-121.38,230.86-107.76,350.67,14.39,126.49,100.37,238.67,222.48,278.32,56.82,18.45,128.38,19.75,191.78,1.05Z"/>
        <path class="cls-11" d="M2108.64,966.63c50.02-104.8,122.06-229.85-26.83-269.39-52.84-14.03-87.95,20.21-122.24,53.68-51.8,50.56-111.4,87.69-178.2,114.59-64.48,25.97-199.03,95.3-135.96,186.56,25.86,37.41,74.48,41.14,109.59,65.71,68.52,47.95,76.43,207.83,174.13,209.7,126.06,2.41,133.74-189.63,146.52-271.97,3.96-25.52,17.41-56.22,33-88.88Z"/>
        <path class="cls-20" d="M304.98,179.78c.18-.27,.36-.53,.55-.8,64.93-94.47,176.82-70.49,272.91-50.58,124.95,25.88,209.77-72.26,324.15-90.82,66.59-10.81,142.74,45.02,120.42,118.2-26.28,86.16-138.66,139.81-218.66,159.53-56.4,13.91-115.35,12.23-171.41,25.95-60.5,14.8-114.9,47.16-173.84,66.56-141.02,46.43-232.63-112.39-154.13-228.04Z"/>
        <path class="cls-19" d="M745.32,565.03c19.14,3.52,39.19,2.98,56.39-.83,31.4-6.95,55.48-30.62,55.96-63.63,.45-31.21-31.71-60.22-57.11-73.98-46.27-25.06-111.02-22.52-124.54,37.77-5.29,23.6-4.27,51.29,11.9,70.45,13.9,16.46,35.03,26.12,57.4,30.23Z"/>
        <path class="cls-22" d="M2312.99,870.57c-13.75-9.04-29.54-15.21-44.19-17.9-26.74-4.91-53.27,5.6-64.5,31.15-10.62,24.15,4.89,57.33,20.14,76.39,27.79,34.74,79.05,54.06,109.4,11.55,11.88-16.63,20.2-38.54,13.91-58.77-5.41-17.39-18.69-31.86-34.76-42.42Z"/>
        <g>
          <path class="cls-2" d="M1095.42-40.95c83.76,11.41,127.12,96.99,175.86,155.6,115.58,139,297.44,229.81,479.07,230.22,91.37,.21,182.13-24.19,258.46-75.07,78.83-52.55,158.12-105.94,251.98-127.69,93.8-21.74,201.75-9.78,280.98,48.27,56.21,41.19,95.07,101.21,142.29,152.46,47.22,51.25,110.39,96.43,179.92,91.86"/>
          <path class="cls-2" d="M1095.42-69.25c83.76,11.41,127.12,96.99,175.86,155.6,115.58,139,297.44,229.81,479.07,230.22,91.37,.21,182.13-24.19,258.46-75.07,78.83-52.55,158.12-105.94,251.98-127.69,93.8-21.74,201.75-9.78,280.98,48.27,56.21,41.19,95.07,101.21,142.29,152.46,47.22,51.25,110.39,96.43,179.92,91.86"/>
          <path class="cls-2" d="M1095.42-97.54c83.76,11.41,127.12,96.99,175.86,155.6,115.58,139,297.44,229.81,479.07,230.22,91.37,.21,182.13-24.19,258.46-75.07,78.83-52.55,158.12-105.94,251.98-127.69,93.8-21.74,201.75-9.78,280.98,48.27,56.21,41.19,95.07,101.21,142.29,152.46,47.22,51.25,110.39,96.43,179.92,91.86"/>
          <path class="cls-2" d="M1095.42-125.83c83.76,11.41,127.12,96.99,175.86,155.6,115.58,139,297.44,229.81,479.07,230.22,91.37,.21,182.13-24.19,258.46-75.07,78.83-52.55,158.12-105.94,251.98-127.69,93.8-21.74,201.75-9.78,280.98,48.27,56.21,41.19,95.07,101.21,142.29,152.46,47.22,51.25,110.39,96.43,179.92,91.86"/>
          <path class="cls-2" d="M1095.42-154.12c83.76,11.41,127.12,96.99,175.86,155.6,115.58,139,297.44,229.81,479.07,230.22,91.37,.21,182.13-24.19,258.46-75.07,78.83-52.55,158.12-105.94,251.98-127.69,93.8-21.74,201.75-9.78,280.98,48.27,56.21,41.19,95.07,101.21,142.29,152.46,47.22,51.25,110.39,96.43,179.92,91.86"/>
          <path class="cls-2" d="M1095.42-182.42c83.76,11.41,127.12,96.99,175.86,155.6,115.58,139,297.44,229.81,479.07,230.22,91.37,.21,182.13-24.19,258.46-75.07,78.83-52.55,158.12-105.94,251.98-127.69,93.8-21.74,201.75-9.78,280.98,48.27,56.21,41.19,95.07,101.21,142.29,152.46,47.22,51.25,110.39,96.43,179.92,91.86"/>
          <path class="cls-2" d="M1095.42-210.71c83.76,11.41,127.12,96.99,175.86,155.6,115.58,139,297.44,229.81,479.07,230.22,91.37,.21,182.13-24.19,258.46-75.07,78.83-52.55,158.12-105.94,251.98-127.69,93.8-21.74,201.75-9.78,280.98,48.27,56.21,41.19,95.07,101.21,142.29,152.46,47.22,51.25,110.39,96.43,179.92,91.86"/>
          <path class="cls-2" d="M1095.42-239c83.76,11.41,127.12,96.99,175.86,155.6,115.58,139,297.44,229.81,479.07,230.22,91.37,.21,182.13-24.19,258.46-75.07,78.83-52.55,158.12-105.94,251.98-127.69,93.8-21.74,201.75-9.78,280.98,48.27,56.21,41.19,95.07,101.21,142.29,152.46,47.22,51.25,110.39,96.43,179.92,91.86"/>
          <path class="cls-2" d="M1095.42-267.3c83.76,11.41,127.12,96.99,175.86,155.6,115.58,139,297.44,229.81,479.07,230.22,91.37,.21,182.13-24.19,258.46-75.07,78.83-52.55,158.12-105.94,251.98-127.69,93.8-21.74,201.75-9.78,280.98,48.27,56.21,41.19,95.07,101.21,142.29,152.46,47.22,51.25,110.39,96.43,179.92,91.86"/>
        </g>
        <g>
          <path class="cls-2" d="M-151.56,460.75c193.62-31.86,402.05,61.49,507.2,227.16,39.9,62.87,65.92,134.61,112.94,192.35,79.14,97.18,209.55,141.81,334.88,142.03,107.63,.19,214.28-28.6,321.75-22.66,123.74,6.84,244.21,61.7,330.61,150.56s137.85,210.82,141.21,334.7"/>
          <path class="cls-2" d="M-161.73,487.09c193.62-31.86,402.05,61.49,507.2,227.16,39.9,62.87,65.92,134.61,112.94,192.35,79.14,97.18,209.55,141.81,334.88,142.03,107.63,.19,214.28-28.6,321.75-22.66,123.74,6.84,244.21,61.7,330.61,150.56,86.39,88.85,137.85,210.82,141.21,334.7"/>
          <path class="cls-2" d="M-171.9,513.42c193.62-31.86,402.05,61.49,507.2,227.16,39.9,62.87,65.92,134.61,112.94,192.35,79.14,97.18,209.55,141.81,334.88,142.03,107.63,.19,214.28-28.6,321.75-22.66,123.74,6.84,244.21,61.7,330.61,150.56s137.85,210.82,141.21,334.7"/>
          <path class="cls-2" d="M-182.07,539.76c193.62-31.86,402.05,61.49,507.2,227.16,39.9,62.87,65.92,134.61,112.94,192.35,79.14,97.18,209.55,141.81,334.88,142.03,107.63,.19,214.28-28.6,321.75-22.66,123.74,6.84,244.21,61.7,330.61,150.56,86.39,88.85,137.85,210.82,141.21,334.7"/>
          <path class="cls-2" d="M-192.24,566.09c193.62-31.86,402.05,61.49,507.2,227.16,39.9,62.87,65.92,134.61,112.94,192.35,79.14,97.18,209.55,141.81,334.88,142.03,107.63,.19,214.28-28.6,321.75-22.66,123.74,6.84,244.21,61.7,330.61,150.56s137.85,210.82,141.21,334.7"/>
          <path class="cls-2" d="M-202.41,592.43c193.62-31.86,402.05,61.49,507.2,227.16,39.9,62.87,65.92,134.61,112.94,192.35,79.14,97.18,209.55,141.81,334.88,142.03,107.63,.19,214.28-28.6,321.75-22.66,123.74,6.84,244.21,61.7,330.61,150.56,86.39,88.85,137.85,210.82,141.21,334.7"/>
          <path class="cls-2" d="M-212.58,618.76c193.62-31.86,402.05,61.49,507.2,227.16,39.9,62.87,65.92,134.61,112.94,192.35,79.14,97.18,209.55,141.81,334.88,142.03,107.63,.19,214.28-28.6,321.75-22.66,123.74,6.84,244.21,61.7,330.61,150.56,86.39,88.85,137.85,210.82,141.21,334.7"/>
          <path class="cls-2" d="M-222.74,645.1c193.62-31.86,402.05,61.49,507.2,227.16,39.9,62.87,65.92,134.61,112.94,192.35,79.14,97.18,209.55,141.81,334.88,142.03,107.63,.19,214.28-28.6,321.75-22.66,123.74,6.84,244.21,61.7,330.61,150.56,86.39,88.85,137.85,210.82,141.21,334.7"/>
          <path class="cls-2" d="M-232.91,671.43c193.62-31.86,402.05,61.49,507.2,227.16,39.9,62.87,65.92,134.61,112.94,192.35,79.14,97.18,209.55,141.81,334.88,142.03,107.63,.19,214.28-28.6,321.75-22.66,123.74,6.84,244.21,61.7,330.61,150.56s137.85,210.82,141.21,334.7"/>
          <path class="cls-2" d="M-243.08,697.76c193.62-31.86,402.05,61.49,507.2,227.16,39.9,62.87,65.92,134.61,112.94,192.35,79.14,97.18,209.55,141.81,334.88,142.03,107.63,.19,214.28-28.6,321.75-22.66,123.74,6.84,244.21,61.7,330.61,150.56,86.39,88.85,137.85,210.82,141.21,334.7"/>
          <path class="cls-2" d="M-253.25,724.1c193.62-31.86,402.05,61.49,507.2,227.16,39.9,62.87,65.92,134.61,112.94,192.35,79.14,97.18,209.55,141.81,334.88,142.03,107.63,.19,214.28-28.6,321.75-22.66,123.74,6.84,244.21,61.7,330.61,150.56s137.85,210.82,141.21,334.7"/>
        </g>
        <text class="cls-16" transform="translate(1196.49 843.46) scale(.98 1)"><tspan x="0" y="0">即刻启航</tspan></text>
        <rect class="cls-5" x="1185.22" y="803.29" width="164.93" height="54.87"/>
      </g>
    </g>
  </g>
</svg>