<?xml version="1.0" encoding="UTF-8"?>
<svg id="Layer_1" data-name="Layer 1" xmlns="http://www.w3.org/2000/svg" viewBox="0 0 144 144">
  <defs>
    <style>
      .cls-1 {
        fill: #939598;
      }
    </style>
  </defs>
  <g>
    <g>
      <g>
        <path class="cls-1" d="M102.23,25.43c2.39,2.29,2.82,5.88,2.82,5.88,0,0-3.45-.12-5.84-2.41-2.39-2.29-2.82-5.88-2.82-5.88,0,0,3.45,.12,5.84,2.41Z"/>
        <g>
          <g>
            <path class="cls-1" d="M85.42,109.74c-2.06,2.77-2.18,6.04-2.15,6.05,0,.04,4.32-1.23,6.26-4.28,1.94-3.02,1-6.14,1.02-6.14-.01,.03-3.07,1.62-5.13,4.37Z"/>
            <path class="cls-1" d="M88.45,119.33c-3.8-.68-5.21-3.69-5.21-3.66,.04,.01,4.11-1.22,7.62-.78,3.54,.45,5.62,2.76,5.62,2.78,.05,.01-4.19,2.36-8.03,1.66Z"/>
          </g>
          <g>
            <path class="cls-1" d="M92.92,106.28c-1.41,3.04-.91,6.22-.88,6.22,0,.04,3.8-1.94,5.08-5.24,1.28-3.26-.18-6.12-.15-6.12,0,.03-2.63,2.12-4.05,5.13Z"/>
            <path class="cls-1" d="M97.56,115.01c-3.69,.01-5.57-2.65-5.57-2.62,.04,0,3.61-1.89,7.01-2.1,3.44-.19,5.84,1.67,5.85,1.7,.05,0-3.56,3.02-7.29,3.02Z"/>
          </g>
          <g>
            <path class="cls-1" d="M99.4,101.6c-.8,3.19,.27,6.17,.29,6.18,0,.04,3.26-2.55,3.91-5.98,.66-3.39-1.24-5.9-1.22-5.9,0,.03-2.17,2.53-2.98,5.7Z"/>
            <path class="cls-1" d="M105.41,109.22c-3.52,.67-5.79-1.57-5.78-1.55,.04,0,3.08-2.47,6.32-3.28,3.27-.8,5.92,.57,5.93,.59,.04,0-2.91,3.57-6.47,4.24Z"/>
          </g>
          <g>
            <path class="cls-1" d="M104.81,95.89c-.22,3.25,1.33,5.94,1.35,5.94,0,.04,2.69-3.06,2.75-6.51,.07-3.42-2.2-5.51-2.18-5.52,0,.03-1.69,2.87-1.93,6.09Z"/>
            <path class="cls-1" d="M111.93,102.19c-3.29,1.29-5.86-.48-5.85-.45,.03,0,2.54-2.95,5.55-4.33,3.04-1.38,5.86-.53,5.87-.51,.04-.01-2.24,4.01-5.56,5.3Z"/>
          </g>
          <g>
            <path class="cls-1" d="M109.1,89.35c.32,3.2,2.29,5.54,2.31,5.53,.01,.04,2.11-3.47,1.6-6.85-.49-3.35-3.05-4.97-3.02-4.98,0,.03-1.2,3.12-.89,6.3Z"/>
            <path class="cls-1" d="M117.09,94.18c-2.99,1.86-5.78,.61-5.77,.63,.03-.01,1.97-3.34,4.69-5.24,2.75-1.91,5.64-1.61,5.65-1.59,.04-.02-1.54,4.33-4.57,6.2Z"/>
          </g>
          <g>
            <path class="cls-1" d="M112.23,82.16c.83,3.07,3.13,4.98,3.15,4.97,.02,.04,1.5-3.78,.47-6.99-1.01-3.19-3.77-4.31-3.75-4.32,.01,.03-.68,3.29,.13,6.34Z"/>
            <path class="cls-1" d="M120.83,85.4c-2.63,2.37-5.56,1.67-5.55,1.69,.03-.02,1.39-3.63,3.75-6,2.39-2.38,5.27-2.63,5.28-2.61,.03-.02-.82,4.53-3.49,6.92Z"/>
          </g>
          <g>
            <path class="cls-1" d="M114.16,74.54c1.3,2.86,3.86,4.3,3.88,4.29,.02,.03,.87-3.99-.65-6.96-1.5-2.95-4.38-3.53-4.36-3.55,.02,.03-.14,3.37,1.14,6.22Z"/>
            <path class="cls-1" d="M123.09,76.1c-2.2,2.82-5.18,2.68-5.16,2.7,.02-.02,.79-3.82,2.72-6.6,1.96-2.79,4.74-3.59,4.76-3.57,.03-.03-.08,4.62-2.32,7.47Z"/>
          </g>
          <g>
            <path class="cls-1" d="M114.83,66.66c1.73,2.58,4.47,3.52,4.48,3.5,.03,.03,.22-4.09-1.75-6.75-1.95-2.63-4.86-2.67-4.85-2.69,.02,.02,.42,3.37,2.12,5.94Z"/>
            <path class="cls-1" d="M123.82,66.52c-1.7,3.2-4.64,3.62-4.62,3.64,.02-.02,.16-3.91,1.61-7.03,1.46-3.13,4.05-4.45,4.07-4.43,.03-.03,.68,4.6-1.05,7.82Z"/>
          </g>
          <g>
            <path class="cls-1" d="M114.2,58.73c2.12,2.24,4.95,2.64,4.96,2.63,.03,.03-.46-4.1-2.84-6.37-2.35-2.26-5.22-1.75-5.21-1.77,.03,.02,.99,3.29,3.09,5.52Z"/>
            <path class="cls-1" d="M122.97,56.9c-1.13,3.5-3.95,4.47-3.92,4.48,.02-.03-.48-3.9,.4-7.28,.9-3.4,3.2-5.19,3.22-5.18,.02-.04,1.46,4.46,.3,7.99Z"/>
          </g>
          <g>
            <path class="cls-1" d="M112.22,50.95c2.47,1.84,5.3,1.71,5.31,1.69,.04,.02-1.15-4-3.91-5.84-2.72-1.82-5.45-.79-5.44-.81,.03,.02,1.59,3.12,4.03,4.96Z"/>
            <path class="cls-1" d="M120.49,47.47c-.49,3.71-3.08,5.2-3.06,5.21,.01-.03-1.14-3.8-.9-7.35,.26-3.57,2.18-5.8,2.2-5.8,.02-.04,2.27,4.2,1.75,7.94Z"/>
          </g>
          <g>
            <path class="cls-1" d="M108.86,43.51c2.78,1.4,5.53,.74,5.54,.72,.04,.01-1.87-3.8-4.96-5.15-3.04-1.34-5.54,.19-5.53,.17,.04,.01,2.2,2.87,4.95,4.26Z"/>
            <path class="cls-1" d="M116.33,38.48c.22,3.82-2.05,5.79-2.03,5.8,0-.03-1.82-3.6-2.29-7.23-.45-3.65,.98-6.26,1.01-6.25,.01-.04,3.1,3.83,3.3,7.69Z"/>
          </g>
          <g>
            <path class="cls-1" d="M104.05,36.61c3.04,.92,5.62-.25,5.63-.28,.05,0-2.62-3.5-5.98-4.32-3.32-.82-5.5,1.17-5.49,1.15,.04,0,2.84,2.53,5.85,3.45Z"/>
            <path class="cls-1" d="M110.42,30.18c1.01,3.82-.85,6.23-.82,6.23,0-.03-2.52-3.31-3.77-6.91-1.23-3.62-.38-6.53-.35-6.53,.01-.04,3.95,3.35,4.94,7.21Z"/>
          </g>
        </g>
        <path class="cls-1" d="M71.1,116.8l.06-.7c5.53,.53,11.05-.12,16.39-1.92,5.21-1.76,10.03-4.53,14.33-8.24,8.93-7.7,14.68-18.68,16.21-30.93,1.25-10.03,.61-18.97-1.91-26.57-2.7-8.16-7.51-14.54-14.29-18.98l.35-.6c6.92,4.52,11.82,11.03,14.57,19.34,2.55,7.7,3.2,16.75,1.94,26.89-1.55,12.43-7.39,23.57-16.45,31.38-4.37,3.77-9.26,6.58-14.55,8.36-5.43,1.83-11.03,2.49-16.66,1.95Z"/>
      </g>
      <g>
        <path class="cls-1" d="M41.77,25.43c-2.39,2.29-2.82,5.88-2.82,5.88,0,0,3.45-.12,5.84-2.41,2.39-2.29,2.82-5.88,2.82-5.88,0,0-3.45,.12-5.84,2.41Z"/>
        <g>
          <g>
            <path class="cls-1" d="M58.58,109.74c2.06,2.77,2.18,6.04,2.15,6.05,0,.04-4.32-1.23-6.26-4.28-1.94-3.02-1-6.14-1.02-6.14,.01,.03,3.07,1.62,5.13,4.37Z"/>
            <path class="cls-1" d="M55.55,119.33c3.8-.68,5.21-3.69,5.21-3.66-.04,.01-4.11-1.22-7.62-.78-3.54,.45-5.62,2.76-5.62,2.78-.05,.01,4.19,2.36,8.03,1.66Z"/>
          </g>
          <g>
            <path class="cls-1" d="M51.08,106.28c1.41,3.04,.91,6.22,.88,6.22,0,.04-3.8-1.94-5.08-5.24-1.28-3.26,.18-6.12,.15-6.12,0,.03,2.63,2.12,4.05,5.13Z"/>
            <path class="cls-1" d="M46.44,115.01c3.69,.01,5.57-2.65,5.57-2.62-.04,0-3.61-1.89-7.01-2.1-3.44-.19-5.84,1.67-5.85,1.7-.05,0,3.56,3.02,7.29,3.02Z"/>
          </g>
          <g>
            <path class="cls-1" d="M44.6,101.6c.8,3.19-.27,6.17-.29,6.18,0,.04-3.26-2.55-3.91-5.98-.66-3.39,1.24-5.9,1.22-5.9,0,.03,2.17,2.53,2.98,5.7Z"/>
            <path class="cls-1" d="M38.59,109.22c3.52,.67,5.79-1.57,5.78-1.55-.04,0-3.08-2.47-6.32-3.28-3.27-.8-5.92,.57-5.93,.59-.04,0,2.91,3.57,6.47,4.24Z"/>
          </g>
          <g>
            <path class="cls-1" d="M39.19,95.89c.22,3.25-1.33,5.94-1.35,5.94,0,.04-2.69-3.06-2.75-6.51-.07-3.42,2.2-5.51,2.18-5.52,0,.03,1.69,2.87,1.93,6.09Z"/>
            <path class="cls-1" d="M32.06,102.19c3.29,1.29,5.86-.48,5.85-.45-.04,0-2.54-2.95-5.55-4.33-3.04-1.38-5.86-.53-5.87-.51-.04-.01,2.24,4.01,5.56,5.3Z"/>
          </g>
          <g>
            <path class="cls-1" d="M34.9,89.35c-.32,3.2-2.29,5.54-2.31,5.53-.01,.04-2.11-3.47-1.6-6.85,.49-3.35,3.05-4.97,3.02-4.98,0,.03,1.2,3.12,.89,6.3Z"/>
            <path class="cls-1" d="M26.91,94.18c2.99,1.86,5.78,.61,5.77,.63-.03-.01-1.97-3.34-4.69-5.24-2.75-1.91-5.64-1.61-5.65-1.59-.04-.02,1.54,4.33,4.57,6.2Z"/>
          </g>
          <g>
            <path class="cls-1" d="M31.77,82.16c-.83,3.07-3.13,4.98-3.15,4.97-.02,.04-1.5-3.78-.47-6.99,1.01-3.19,3.77-4.31,3.75-4.32-.01,.03,.68,3.29-.13,6.34Z"/>
            <path class="cls-1" d="M23.17,85.4c2.63,2.37,5.56,1.67,5.55,1.69-.03-.02-1.39-3.63-3.75-6-2.39-2.38-5.27-2.63-5.28-2.61-.03-.02,.82,4.53,3.49,6.92Z"/>
          </g>
          <g>
            <path class="cls-1" d="M29.84,74.54c-1.3,2.86-3.86,4.3-3.88,4.29-.02,.03-.87-3.99,.65-6.96,1.5-2.95,4.38-3.53,4.36-3.55-.02,.03,.14,3.37-1.14,6.22Z"/>
            <path class="cls-1" d="M20.91,76.1c2.2,2.82,5.18,2.68,5.16,2.7-.02-.02-.79-3.82-2.72-6.6-1.96-2.79-4.74-3.59-4.76-3.57-.03-.03,.08,4.62,2.32,7.47Z"/>
          </g>
          <g>
            <path class="cls-1" d="M29.17,66.66c-1.73,2.58-4.47,3.52-4.48,3.5-.03,.03-.22-4.09,1.75-6.75,1.95-2.63,4.86-2.67,4.85-2.69-.02,.02-.42,3.37-2.12,5.94Z"/>
            <path class="cls-1" d="M20.18,66.52c1.7,3.2,4.64,3.62,4.62,3.64-.02-.02-.16-3.91-1.61-7.03-1.46-3.13-4.05-4.45-4.07-4.43-.03-.03-.68,4.6,1.05,7.82Z"/>
          </g>
          <g>
            <path class="cls-1" d="M29.8,58.73c-2.12,2.24-4.95,2.64-4.96,2.63-.03,.03,.46-4.1,2.84-6.37,2.35-2.26,5.22-1.75,5.21-1.77-.03,.02-.99,3.29-3.09,5.52Z"/>
            <path class="cls-1" d="M21.03,56.9c1.13,3.5,3.95,4.47,3.92,4.48-.02-.03,.48-3.9-.4-7.28-.9-3.4-3.2-5.19-3.22-5.18-.02-.04-1.46,4.46-.3,7.99Z"/>
          </g>
          <g>
            <path class="cls-1" d="M31.78,50.95c-2.47,1.84-5.3,1.71-5.31,1.69-.04,.02,1.15-4,3.91-5.84,2.72-1.82,5.45-.79,5.44-.81-.03,.02-1.59,3.12-4.03,4.96Z"/>
            <path class="cls-1" d="M23.51,47.47c.49,3.71,3.08,5.2,3.06,5.21-.01-.03,1.14-3.8,.9-7.35-.26-3.57-2.18-5.8-2.2-5.8-.02-.04-2.27,4.2-1.75,7.94Z"/>
          </g>
          <g>
            <path class="cls-1" d="M35.14,43.51c-2.78,1.4-5.53,.74-5.54,.72-.04,.01,1.87-3.8,4.96-5.15,3.04-1.34,5.54,.19,5.53,.17-.04,.01-2.2,2.87-4.95,4.26Z"/>
            <path class="cls-1" d="M27.67,38.48c-.22,3.82,2.05,5.79,2.03,5.8,0-.03,1.82-3.6,2.29-7.23,.45-3.65-.98-6.26-1.01-6.25-.01-.04-3.1,3.83-3.3,7.69Z"/>
          </g>
          <g>
            <path class="cls-1" d="M39.95,36.61c-3.04,.92-5.62-.25-5.63-.28-.05,0,2.62-3.5,5.98-4.32,3.32-.82,5.5,1.17,5.49,1.15-.04,0-2.84,2.53-5.85,3.45Z"/>
            <path class="cls-1" d="M33.58,30.18c-1.01,3.82,.85,6.23,.82,6.23,0-.03,2.52-3.31,3.77-6.91,1.23-3.62,.38-6.53,.35-6.53-.01-.04-3.95,3.35-4.94,7.21Z"/>
          </g>
        </g>
        <path class="cls-1" d="M72.9,116.8l-.06-.7c-5.53,.53-11.05-.12-16.39-1.92-5.21-1.76-10.03-4.53-14.33-8.24-8.93-7.7-14.68-18.68-16.21-30.93-1.25-10.03-.61-18.97,1.91-26.57,2.7-8.16,7.51-14.54,14.29-18.98l-.35-.6c-6.92,4.52-11.82,11.03-14.57,19.34-2.55,7.7-3.2,16.75-1.94,26.89,1.55,12.43,7.39,23.57,16.45,31.38,4.37,3.77,9.26,6.58,14.55,8.36,5.43,1.83,11.03,2.49,16.66,1.95Z"/>
      </g>
    </g>
    <polygon class="cls-1" points="71.8 113.21 66.73 117.12 71.8 121.03 76.87 117.12 71.8 113.21"/>
  </g>
  <g>
    <polygon class="cls-1" points="72.32 43.85 77.09 55.21 88.85 53.87 81.86 63.88 88.85 73.9 77.09 72.56 72.32 83.91 67.55 72.56 55.79 73.9 62.78 63.88 55.79 53.87 67.55 55.21 72.32 43.85"/>
    <path class="cls-1" d="M72.32,84.43l-4.89-11.65-12.06,1.38,7.17-10.27-7.17-10.27,12.06,1.38,4.89-11.65,4.89,11.65,12.06-1.38-7.17,10.27,7.17,10.27-12.06-1.38-4.89,11.65Zm-4.65-12.1l.06,.14,4.59,10.92,4.65-11.06,11.45,1.31-6.8-9.76,.09-.12,6.72-9.63-11.45,1.31-4.65-11.06-4.65,11.06-11.45-1.31,6.8,9.76-.09,.12-6.72,9.63,11.45-1.31Z"/>
  </g>
</svg>