<svg width="232" height="100" viewBox="0 0 232 100" fill="none" xmlns="http://www.w3.org/2000/svg">
<path d="M117.5 59.9999L117.043 60.2029L117.5 59.9999ZM101 43L100.577 42.7329L101 43ZM231.591 43.4916C231.863 43.4412 232.042 43.1802 231.992 42.9087L231.17 38.4843C231.12 38.2128 230.859 38.0336 230.587 38.084C230.316 38.1344 230.137 38.3954 230.187 38.6669L230.917 42.5997L226.984 43.3299C226.713 43.3803 226.534 43.6412 226.584 43.9127C226.634 44.1842 226.895 44.3635 227.167 44.3131L231.591 43.4916ZM1.02539 1.99923C1.50527 1.97483 1.99457 1.95338 2.49297 1.935L2.45612 0.935684C1.95318 0.954226 1.45923 0.975882 0.974609 1.00052L1.02539 1.99923ZM5.48162 1.86392C6.45126 1.85302 7.44882 1.85318 8.47227 1.86519L8.484 0.865263C7.45305 0.853162 6.44783 0.852996 5.47038 0.863986L5.48162 1.86392ZM11.464 1.93241C12.4421 1.96465 13.4401 2.00741 14.4566 2.06127L14.5095 1.06267C13.4864 1.00846 12.4817 0.965417 11.4969 0.932957L11.464 1.93241ZM17.4498 2.24886C18.4299 2.31965 19.4246 2.40062 20.4327 2.49225L20.5232 1.49636C19.5089 1.40416 18.5081 1.32269 17.5218 1.25145L17.4498 2.24886ZM23.4019 2.78931C24.3813 2.89622 25.3716 3.01314 26.3717 3.14048L26.498 2.14849C25.4919 2.02039 24.4957 1.90277 23.5104 1.79521L23.4019 2.78931ZM29.341 3.54548C30.3213 3.68809 31.3097 3.84073 32.3053 4.00376L32.4669 3.01691C31.4653 2.8529 30.4711 2.69936 29.485 2.55589L29.341 3.54548ZM35.2453 4.51214C36.2192 4.6895 37.1988 4.87688 38.1834 5.07461L38.3803 4.09418C37.3898 3.89525 36.4042 3.70675 35.4245 3.52832L35.2453 4.51214ZM41.1168 5.69162C42.0846 5.90447 43.0563 6.12746 44.031 6.36088L44.2639 5.38837C43.2831 5.15349 42.3054 4.92913 41.3316 4.71496L41.1168 5.69162ZM46.931 7.08427C47.8928 7.33389 48.8568 7.59385 49.8222 7.86443L50.0921 6.90154C49.1204 6.62919 48.1501 6.36755 47.1822 6.11634L46.931 7.08427ZM52.6952 8.70023C53.6453 8.98691 54.5962 9.28412 55.547 9.59212L55.8552 8.64079C54.8979 8.33068 53.9406 8.03146 52.984 7.74285L52.6952 8.70023ZM58.3844 10.5439C59.3238 10.8699 60.2624 11.2068 61.1996 11.5548L61.5476 10.6173C60.6036 10.2668 59.6583 9.92751 58.7123 9.59915L58.3844 10.5439ZM63.9891 12.6254C64.9141 12.9922 65.837 13.3701 66.7571 13.7594L67.1467 12.8384C66.2195 12.4461 65.2896 12.0653 64.3577 11.6958L63.9891 12.6254ZM69.4965 14.9563C70.4029 15.3652 71.3059 15.7854 72.205 16.2174L72.6381 15.316C71.7316 14.8805 70.8213 14.4568 69.9076 14.0448L69.4965 14.9563ZM74.8835 17.5456C75.769 17.9987 76.6499 18.4636 77.5255 18.9406L78.0038 18.0624C77.1205 17.5813 76.232 17.1123 75.339 16.6554L74.8835 17.5456ZM80.1293 20.404C80.9902 20.9032 81.8452 21.4146 82.6937 21.9383L83.219 21.0874C82.3626 20.5587 81.4997 20.0426 80.631 19.5389L80.1293 20.404ZM85.2119 23.5426C86.0428 24.0887 86.8666 24.6474 87.6826 25.2189L88.2563 24.3998C87.432 23.8226 86.6001 23.2584 85.7612 22.7069L85.2119 23.5426ZM90.1035 26.9693C90.8996 27.5635 91.6873 28.1706 92.4663 28.7908L93.0892 28.0085C92.302 27.3817 91.506 26.7683 90.7017 26.1679L90.1035 26.9693ZM94.7711 30.687C95.5284 31.3307 96.2763 31.9877 97.0142 32.6582L97.6867 31.9181C96.9405 31.2401 96.1843 30.5758 95.4188 29.9251L94.7711 30.687ZM99.1866 34.6996C99.8984 35.3916 100.6 36.0971 101.29 36.8163L102.012 36.1237C101.313 35.3961 100.604 34.6825 99.8836 33.9826L99.1866 34.6996ZM103.319 39.0046C103.979 39.7429 104.628 40.4948 105.265 41.2605L106.034 40.6209C105.389 39.8459 104.732 39.0849 104.064 38.3379L103.319 39.0046ZM107.134 43.5904C107.738 44.3733 108.331 45.1699 108.911 45.9805L109.724 45.3986C109.137 44.578 108.537 43.7716 107.925 42.979L107.134 43.5904ZM110.601 48.4363C111.148 49.2633 111.682 50.104 112.202 50.9586L113.056 50.4385C112.529 49.5732 111.989 48.722 111.435 47.8848L110.601 48.4363ZM113.702 53.5267C114.186 54.3911 114.656 55.2692 115.112 56.161L116.003 55.7053C115.54 54.8025 115.064 53.9136 114.575 53.0384L113.702 53.5267ZM116.42 58.8353C116.631 59.2878 116.839 59.7437 117.043 60.2029L117.957 59.7968C117.75 59.3319 117.54 58.8705 117.326 58.4125L116.42 58.8353ZM117.043 60.2029C117.261 60.6939 117.473 61.1798 117.677 61.6608L118.597 61.2694C118.391 60.7834 118.177 60.2926 117.957 59.7968L117.043 60.2029ZM118.825 64.4873C119.202 65.4647 119.55 66.4199 119.87 67.3531L120.816 67.0289C120.492 66.0832 120.139 65.116 119.757 64.1271L118.825 64.4873ZM120.789 70.234C121.09 71.2522 121.354 72.2416 121.585 73.2022L122.557 72.9688C122.322 71.9908 122.053 70.985 121.748 69.9512L120.789 70.234ZM122.2 76.1289C122.387 77.1741 122.531 78.1809 122.634 79.1499L123.628 79.0441C123.523 78.0504 123.375 77.0201 123.184 75.9527L122.2 76.1289ZM122.83 82.1841C122.85 83.2395 122.818 84.2415 122.736 85.191L123.733 85.2764C123.817 84.2899 123.851 83.2527 123.829 82.1643L122.83 82.1841ZM122.293 88.1502C122.067 89.1777 121.774 90.1268 121.423 90.9993L122.351 91.372C122.723 90.4455 123.032 89.4435 123.27 88.3654L122.293 88.1502ZM120.057 93.6222C119.491 94.4743 118.855 95.2193 118.162 95.8605L118.841 96.5947C119.594 95.8981 120.282 95.0918 120.89 94.1749L120.057 93.6222ZM115.776 97.5562C114.908 98.0173 113.988 98.3618 113.031 98.5918L113.264 99.5641C114.301 99.3151 115.301 98.9412 116.245 98.4393L115.776 97.5562ZM110.102 98.9401C109.133 98.9455 108.144 98.8476 107.152 98.6479L106.955 99.6282C108.011 99.8408 109.067 99.9459 110.108 99.9401L110.102 98.9401ZM104.308 97.7955C103.405 97.4345 102.512 96.9891 101.641 96.4608L101.122 97.3158C102.039 97.872 102.982 98.3422 103.937 98.724L104.308 97.7955ZM99.2101 94.7167C98.4615 94.089 97.7412 93.393 97.0584 92.6301L96.3132 93.2971C97.0276 94.0952 97.7822 94.8244 98.5676 95.4829L99.2101 94.7167ZM95.2135 90.2635C94.6656 89.4548 94.1559 88.5917 93.6914 87.6751L92.7994 88.1271C93.2828 89.0811 93.8139 89.9806 94.3857 90.8244L95.2135 90.2635ZM92.4962 84.9191C92.161 84.0029 91.8677 83.044 91.6216 82.0429L90.6505 82.2817C90.9053 83.3178 91.2091 84.3118 91.5571 85.2627L92.4962 84.9191ZM91.0534 79.0852C90.9166 78.1148 90.8218 77.1108 90.7727 76.0736L89.7739 76.1209C89.8244 77.1884 89.922 78.2232 90.0632 79.2247L91.0534 79.0852ZM90.7599 73.0244C90.7965 72.0511 90.8716 71.0521 90.988 70.0279L89.9944 69.915C89.8752 70.9637 89.7981 71.9879 89.7606 72.9869L90.7599 73.0244ZM91.4334 67.0414C91.6135 66.062 91.8301 65.0618 92.0852 64.0411L91.115 63.7987C90.8549 64.8393 90.6339 65.86 90.4499 66.8605L91.4334 67.0414ZM92.8966 61.146C93.1898 60.2005 93.5153 59.2387 93.8744 58.261L92.9357 57.9163C92.5709 58.9096 92.2399 59.8875 91.9415 60.8498L92.8966 61.146ZM94.9941 55.4221C95.3768 54.5132 95.7881 53.5915 96.2288 52.6571L95.3244 52.2305C94.8778 53.1773 94.4608 54.1118 94.0725 55.0339L94.9941 55.4221ZM97.5928 49.9077C98.0487 49.0313 98.5301 48.1445 99.0378 47.2474L98.1675 46.7549C97.6542 47.662 97.1671 48.5591 96.7057 49.4461L97.5928 49.9077ZM100.59 44.6083C100.861 44.1636 101.139 43.7166 101.423 43.2671L100.577 42.7329C100.29 43.1868 100.01 43.6383 99.7361 44.0875L100.59 44.6083ZM101.423 43.2671C101.698 42.8311 101.977 42.4011 102.258 41.9772L101.424 41.4245C101.139 41.8546 100.857 42.2907 100.577 42.7329L101.423 43.2671ZM103.977 39.5059C104.58 38.6796 105.195 37.8786 105.82 37.1023L105.041 36.475C104.406 37.2638 103.782 38.0774 103.17 38.9164L103.977 39.5059ZM107.754 34.8184C108.435 34.0534 109.127 33.3153 109.83 32.6033L109.119 31.9005C108.403 32.6249 107.699 33.3757 107.007 34.1535L107.754 34.8184ZM112.001 30.52C112.75 29.8384 113.51 29.1841 114.281 28.5563L113.65 27.7808C112.865 28.4202 112.091 29.0864 111.328 29.7802L112.001 30.52ZM116.676 26.7155C117.493 26.1232 118.321 25.5582 119.159 25.0199L118.618 24.1785C117.765 24.7269 116.921 25.3025 116.089 25.9059L116.676 26.7155ZM121.74 23.4634C122.619 22.9667 123.507 22.4973 124.405 22.0542L123.963 21.1574C123.048 21.6087 122.143 22.0869 121.248 22.5928L121.74 23.4634ZM127.141 20.7972C128.068 20.4022 129.003 20.0333 129.946 19.6897L129.604 18.7501C128.644 19.0997 127.692 19.4752 126.749 19.8774L127.141 20.7972ZM132.805 18.7326C133.766 18.4383 134.735 18.1687 135.711 17.9229L135.466 16.9532C134.475 17.2031 133.49 17.4771 132.513 17.7764L132.805 18.7326ZM138.655 17.2568C139.639 17.0587 140.63 16.8834 141.626 16.7301L141.473 15.7418C140.463 15.8973 139.457 16.0753 138.457 16.2765L138.655 17.2568ZM144.621 16.3364C145.62 16.227 146.624 16.1386 147.632 16.0702L147.564 15.0725C146.543 15.1418 145.525 15.2314 144.512 15.3424L144.621 16.3364ZM150.648 15.9254C151.654 15.8967 152.662 15.8869 153.674 15.8954L153.682 14.8954C152.659 14.8868 151.638 14.8967 150.62 14.9258L150.648 15.9254ZM156.698 15.974C157.702 16.0175 158.709 16.078 159.716 16.155L159.792 15.1579C158.774 15.0801 157.757 15.0189 156.741 14.9749L156.698 15.974ZM162.733 16.4331C163.734 16.541 164.735 16.6642 165.737 16.8021L165.874 15.8115C164.862 15.6723 163.851 15.5478 162.84 15.4388L162.733 16.4331ZM168.731 17.2572C169.726 17.4226 170.72 17.6018 171.714 17.794L171.904 16.8122C170.902 16.6183 169.899 16.4376 168.894 16.2708L168.731 17.2572ZM174.68 18.407C175.666 18.6236 176.651 18.8525 177.633 19.093L177.87 18.1217C176.881 17.8794 175.889 17.6487 174.895 17.4303L174.68 18.407ZM180.568 19.8477C181.545 20.1104 182.518 20.3841 183.488 20.6679L183.768 19.7081C182.792 19.4223 181.812 19.1467 180.828 18.882L180.568 19.8477ZM186.389 21.5503C187.354 21.8546 188.314 22.1685 189.27 22.4912L189.59 21.5438C188.628 21.219 187.661 20.903 186.69 20.5966L186.389 21.5503ZM192.137 23.4905C193.091 23.8333 194.039 24.1844 194.981 24.5429L195.337 23.6084C194.389 23.2476 193.435 22.8944 192.475 22.5494L192.137 23.4905ZM197.805 25.6471C198.749 26.026 199.685 26.412 200.614 26.8043L201.003 25.883C200.069 25.4885 199.127 25.1003 198.177 24.7191L197.805 25.6471ZM203.397 28.0076C204.327 28.419 205.248 28.8362 206.159 29.2582L206.579 28.3508C205.663 27.9264 204.737 27.5069 203.802 27.0931L203.397 28.0076ZM208.908 30.5591C209.825 31.0026 210.732 31.4504 211.627 31.9016L212.077 31.0086C211.177 30.555 210.266 30.1048 209.343 29.6589L208.908 30.5591ZM214.318 33.2863C215.227 33.7632 216.122 34.2428 217.003 34.7242L217.482 33.8467C216.596 33.3626 215.696 32.8804 214.783 32.4009L214.318 33.2863ZM219.655 36.2027C220.544 36.7083 221.417 37.2147 222.273 37.7208L222.782 36.8601C221.922 36.3511 221.044 35.8418 220.149 35.3334L219.655 36.2027ZM224.866 39.2861C225.747 39.8286 226.606 40.3695 227.444 40.9071L227.984 40.0658C227.142 39.5246 226.277 38.9804 225.39 38.4346L224.866 39.2861ZM229.984 42.5748C230.401 42.8553 230.813 43.1345 231.217 43.4122L231.783 42.5878C231.376 42.3081 230.962 42.0269 230.541 41.7445L229.984 42.5748Z" fill="white"/>
</svg>
